<svg width="40" height="26" viewBox="0 0 40 26" fill="none" xmlns="http://www.w3.org/2000/svg">
<path d="M0.605225 25.0028V0.36377H10.4705C12.2831 0.36377 13.795 0.632458 15.0061 1.16983C16.2172 1.70721 17.1275 2.45312 17.7371 3.40756C18.3466 4.35398 18.6514 5.44478 18.6514 6.67994C18.6514 7.6424 18.4589 8.48857 18.0739 9.21844C17.689 9.94029 17.1596 10.5338 16.4859 10.999C15.8202 11.4562 15.0582 11.781 14.2 11.9735V12.2141C15.1384 12.2542 16.0167 12.5189 16.8348 13.0081C17.6609 13.4974 18.3306 14.1831 18.8439 15.0654C19.3572 15.9396 19.6139 16.9823 19.6139 18.1934C19.6139 19.5008 19.2891 20.6677 18.6394 21.6944C17.9977 22.713 17.0473 23.519 15.7881 24.1126C14.5289 24.7061 12.9769 25.0028 11.1322 25.0028H0.605225ZM5.81456 20.7439H10.0614C11.5131 20.7439 12.5719 20.4672 13.2376 19.9138C13.9033 19.3524 14.2361 18.6065 14.2361 17.6761C14.2361 16.9943 14.0717 16.3928 13.7429 15.8715C13.414 15.3501 12.9448 14.9411 12.3353 14.6443C11.7337 14.3476 11.0159 14.1992 10.1817 14.1992H5.81456V20.7439ZM5.81456 10.6742H9.67645C10.3903 10.6742 11.0239 10.5498 11.5773 10.3012C12.1388 10.0446 12.5799 9.68363 12.9007 9.21844C13.2295 8.75325 13.394 8.19582 13.394 7.54616C13.394 6.65588 13.0772 5.93804 12.4435 5.39264C11.8179 4.84725 10.9277 4.57455 9.77269 4.57455H5.81456V10.6742Z" fill="#F5F5F5"/>
<path d="M31.3583 25.3638C29.4574 25.3638 27.8212 24.9788 26.4497 24.2088C25.0862 23.4308 24.0355 22.332 23.2976 20.9124C22.5597 19.4847 22.1908 17.7964 22.1908 15.8474C22.1908 13.9465 22.5597 12.2783 23.2976 10.8426C24.0355 9.40692 25.0742 8.28806 26.4136 7.486C27.761 6.68395 29.3411 6.28292 31.1537 6.28292C32.3729 6.28292 33.5078 6.47943 34.5584 6.87243C35.6172 7.25742 36.5395 7.83891 37.3255 8.6169C38.1196 9.39489 38.7371 10.3734 39.1783 11.5524C39.6194 12.7234 39.84 14.0949 39.84 15.6669V17.0745H24.236V13.8984H35.0156C35.0156 13.1605 34.8552 12.5069 34.5344 11.9374C34.2136 11.3679 33.7684 10.9228 33.199 10.602C32.6375 10.2731 31.9839 10.1087 31.2379 10.1087C30.46 10.1087 29.7702 10.2892 29.1687 10.6501C28.5751 11.003 28.1099 11.4802 27.7731 12.0818C27.4362 12.6753 27.2638 13.337 27.2558 14.0668V17.0866C27.2558 18.0009 27.4242 18.7909 27.761 19.4566C28.1059 20.1224 28.5912 20.6357 29.2168 20.9966C29.8424 21.3575 30.5843 21.538 31.4425 21.538C32.0119 21.538 32.5333 21.4578 33.0065 21.2974C33.4797 21.1369 33.8847 20.8963 34.2216 20.5755C34.5584 20.2547 34.8151 19.8617 34.9916 19.3965L39.7317 19.7093C39.4911 20.8482 38.9978 21.8428 38.2519 22.6929C37.514 23.5351 36.5596 24.1928 35.3886 24.666C34.2256 25.1312 32.8822 25.3638 31.3583 25.3638Z" fill="#F5F5F5"/>
<path d="M26.2443 1.96531H35.7303V4.67561H26.2443V1.96531Z" fill="#F5F5F5"/>
</svg>
