<svg width="25" height="25" viewBox="0 0 25 25" fill="none" xmlns="http://www.w3.org/2000/svg">
<path d="M16.9171 22.9165C16.6409 22.9165 16.3759 22.8068 16.1806 22.6114C15.9852 22.4161 15.8755 22.1511 15.8755 21.8748V19.1665C15.9078 18.855 15.8745 18.5401 15.7776 18.2423C15.6807 17.9444 15.5224 17.6702 15.313 17.4373C15.1833 17.2967 15.0948 17.123 15.0573 16.9354C15.0198 16.7478 15.0347 16.5535 15.1003 16.3738C15.166 16.1941 15.2798 16.036 15.4294 15.9167C15.579 15.7975 15.7586 15.7217 15.9484 15.6978C18.4901 15.3957 20.8338 14.5832 20.8338 10.1769C20.8346 9.35409 20.5918 8.54943 20.1359 7.86442C19.7152 7.23383 19.5616 6.4622 19.7088 5.71859C19.8027 5.23351 19.8027 4.73492 19.7088 4.24984C18.9288 4.51356 18.1944 4.89658 17.5317 5.38525C17.4064 5.47423 17.263 5.53438 17.1117 5.56139C16.9604 5.58841 16.8051 5.58161 16.6567 5.5415C14.7769 5.01031 12.7866 5.01031 10.9067 5.5415C10.7584 5.58161 10.603 5.58841 10.4517 5.56139C10.3004 5.53438 10.157 5.47423 10.0317 5.38525C9.36498 4.89092 8.62279 4.50751 7.8338 4.24984C7.73474 4.73441 7.73474 5.23401 7.8338 5.71859C7.97035 6.47156 7.8098 7.24815 7.38588 7.88525C6.93199 8.57507 6.68942 9.38242 6.68797 10.2082C6.68797 14.2603 8.6463 15.3436 11.5838 15.7186C11.776 15.7424 11.9578 15.8194 12.1087 15.9409C12.2595 16.0623 12.3736 16.2234 12.438 16.4061C12.4985 16.5833 12.5102 16.7737 12.4717 16.957C12.4332 17.1403 12.346 17.3098 12.2192 17.4478C12.0166 17.6643 11.8611 17.9205 11.7625 18.2002C11.6639 18.4799 11.6243 18.777 11.6463 19.0728V21.8748C11.6463 22.1511 11.5366 22.4161 11.3412 22.6114C11.1459 22.8068 10.8809 22.9165 10.6046 22.9165C10.3284 22.9165 10.0634 22.8068 9.86806 22.6114C9.67271 22.4161 9.56297 22.1511 9.56297 21.8748V21.2811C8.53939 21.3988 7.50258 21.2616 6.54482 20.8818C5.58707 20.502 4.73807 19.8913 4.07338 19.104C3.73172 18.7253 3.3218 18.4143 2.86505 18.1873C2.73236 18.1531 2.60771 18.0931 2.4982 18.0108C2.3887 17.9284 2.2965 17.8253 2.22685 17.7073C2.15721 17.5892 2.11149 17.4587 2.09231 17.323C2.07312 17.1873 2.08085 17.0492 2.11505 16.9165C2.14925 16.7838 2.20925 16.6592 2.29162 16.5497C2.37399 16.4402 2.47713 16.348 2.59514 16.2783C2.71315 16.2087 2.84371 16.1629 2.97939 16.1438C3.11507 16.1246 3.25319 16.1323 3.38588 16.1665C4.18719 16.4584 4.90318 16.9453 5.46922 17.5832C6.51088 18.6248 7.55255 19.5415 9.53172 19.1665C9.49692 18.6072 9.5785 18.0468 9.7713 17.5207C7.62547 16.979 4.56297 15.4373 4.56297 10.229C4.56022 8.99529 4.92266 7.78835 5.60463 6.76025C5.7313 6.57047 5.77982 6.33911 5.74005 6.11442C5.52956 4.99002 5.64894 3.82873 6.0838 2.77067C6.14289 2.62959 6.23232 2.50326 6.34574 2.40064C6.45916 2.29802 6.59378 2.22164 6.74005 2.17692C7.09422 2.07275 8.36505 1.86442 10.7713 3.42692C12.7192 2.95818 14.7505 2.95818 16.6984 3.42692C19.1046 1.86442 20.3755 2.06234 20.7192 2.17692C20.8655 2.22164 21.0001 2.29802 21.1135 2.40064C21.227 2.50326 21.3164 2.62959 21.3755 2.77067C21.8112 3.83216 21.9306 4.99703 21.7192 6.12484C21.6979 6.22646 21.6971 6.3313 21.7167 6.43325C21.7364 6.5352 21.7762 6.6322 21.8338 6.71859C22.5177 7.74964 22.8803 8.96049 22.8755 10.1978C22.8755 15.479 19.8338 17.0103 17.6671 17.4894C17.858 18.0484 17.9359 18.6397 17.8963 19.229V21.8748C17.8968 22.1406 17.7957 22.3965 17.6136 22.5902C17.4316 22.7838 17.1824 22.9006 16.9171 22.9165Z" fill="white"/>
</svg>
