<svg width="23" height="23" viewBox="0 0 23 23" fill="none" xmlns="http://www.w3.org/2000/svg">
<path d="M5.1489 23.0008H0.380335V7.64449H5.1489V23.0008ZM2.76174 5.54977C1.23712 5.54977 0 4.28637 0 2.76174C0 1.23712 1.23629 0 2.76174 0C4.28719 0 5.52348 1.23629 5.52348 2.76174C5.52348 4.28637 4.28637 5.54977 2.76174 5.54977ZM22.9959 23.0008H18.238V15.5256C18.238 13.7438 18.2019 11.4593 15.7588 11.4593C13.2797 11.4593 12.8994 13.3947 12.8994 15.3974V23.0008H8.13572V7.64449H12.7088V9.7392H12.7753C13.4119 8.53248 14.967 7.25922 17.2868 7.25922C22.1128 7.25922 23 10.4374 23 14.5653V23.0008H22.9959Z" fill="#EFEFEF"/>
</svg>
