<svg width="28" height="28" viewBox="0 0 28 28" fill="none" xmlns="http://www.w3.org/2000/svg">
<path d="M9.9282 23.3334H9.83486C7.95462 23.317 6.10156 22.8826 4.40986 22.0618C4.09868 21.9156 3.84246 21.6737 3.67872 21.3714C3.51497 21.069 3.45229 20.7223 3.49986 20.3818C3.5516 20.039 3.71031 19.7213 3.95335 19.474C4.19639 19.2268 4.51133 19.0627 4.8532 19.0051C5.90157 18.8652 6.91013 18.5118 7.81653 17.9668C6.24288 16.7364 5.03141 15.1033 4.31048 13.2404C3.58956 11.3775 3.38606 9.35426 3.72153 7.38511C3.76701 7.0732 3.90115 6.78093 4.10798 6.54307C4.31482 6.30522 4.58563 6.13179 4.8882 6.04344C5.18256 5.95099 5.4976 5.94704 5.79419 6.03208C6.09078 6.11711 6.35587 6.28739 6.55653 6.52177C7.23786 7.41519 8.09407 8.16043 9.07292 8.71203C10.0518 9.26363 11.1327 9.61004 12.2499 9.73011C12.3032 8.3556 12.8939 7.05694 13.8949 6.11344C14.3947 5.63484 14.9847 5.2605 15.6306 5.01223C16.2766 4.76396 16.9654 4.64673 17.6571 4.66736C18.3488 4.68799 19.0295 4.84607 19.6595 5.1324C20.2894 5.41873 20.8561 5.82757 21.3265 6.33511C21.4491 6.44345 21.6013 6.5125 21.7636 6.5333C21.9258 6.5541 22.0906 6.5257 22.2365 6.45177C22.5147 6.32058 22.8244 6.27119 23.1296 6.30937C23.4348 6.34756 23.7228 6.47174 23.9601 6.66743C24.1974 6.86311 24.3741 7.12224 24.4697 7.41457C24.5652 7.7069 24.5757 8.02038 24.4999 8.31844C24.2308 9.42691 23.7209 10.4625 23.0065 11.3518C22.8491 14.6706 21.3859 17.7927 18.936 20.0372C16.4861 22.2816 13.2481 23.4665 9.9282 23.3334ZM9.9282 21.0001H10.0215C11.378 21.0468 12.7302 20.8237 13.9998 20.3438C15.2694 19.864 16.4311 19.1368 17.4175 18.2046C18.404 17.2724 19.1956 16.1537 19.7465 14.9132C20.2973 13.6728 20.5964 12.3354 20.6265 10.9784C20.6458 10.6066 20.7991 10.2543 21.0582 9.98677C21.3428 9.62656 21.5854 9.23516 21.7815 8.82011C21.3612 8.82091 20.9455 8.73299 20.5615 8.56211C20.1775 8.39122 19.8339 8.14122 19.5532 7.82844C19.2832 7.56075 18.9626 7.34961 18.61 7.20738C18.2574 7.06515 17.88 6.99468 17.4999 7.00011C17.1159 6.99018 16.7338 7.05618 16.3754 7.19432C16.017 7.33247 15.6895 7.54003 15.4115 7.80511C15.0365 8.16094 14.7616 8.60902 14.6142 9.1045C14.4667 9.59998 14.452 10.1255 14.5715 10.6284L14.8749 11.9584L13.5099 12.0518C12.1111 12.1658 10.7043 11.9745 9.38688 11.491C8.06942 11.0076 6.87279 10.2435 5.87986 9.25177C5.83728 10.7876 6.22146 12.3051 6.98971 13.6356C7.75795 14.9661 8.88014 16.0575 10.2315 16.7884L11.3399 17.4184L10.6049 18.4684C9.81 19.5109 8.72091 20.2911 7.4782 20.7084C8.27539 20.9082 9.09469 21.0063 9.91653 21.0001H9.9282Z" fill="white"/>
</svg>
