<svg width="350" height="228" viewBox="0 0 350 228" fill="none" xmlns="http://www.w3.org/2000/svg">
<rect width="350" height="228" fill="#EFEFEF"/>
<path d="M28.3047 133V99.3906H49.2344V107.312H38.4297V112.211H48.5781V120.133H38.4297V125.078H50.0078V133H28.3047ZM55.3359 123.789V117.062H68.1562V123.789H55.3359ZM100.344 132.086C97.5625 133.086 94.3516 133.586 90.7109 133.586C87.1328 133.586 84.0469 132.906 81.4531 131.547C78.8594 130.172 76.875 128.227 75.5 125.711C74.1406 123.18 73.4609 120.266 73.4609 116.969C73.4609 113.422 74.2266 110.266 75.7578 107.5C77.2891 104.734 79.4531 102.602 82.25 101.102C85.0469 99.5859 88.2656 98.8281 91.9062 98.8281C94.8125 98.8281 97.625 99.1797 100.344 99.8828V109.234C99.4062 108.672 98.2891 108.234 96.9922 107.922C95.6953 107.609 94.3828 107.453 93.0547 107.453C90.3047 107.453 88.1328 108.242 86.5391 109.82C84.9609 111.398 84.1719 113.539 84.1719 116.242C84.1719 118.93 84.9609 121.055 86.5391 122.617C88.1328 124.164 90.2578 124.938 92.9141 124.938C95.3672 124.938 97.8438 124.312 100.344 123.062V132.086ZM131.852 120.578C131.852 124.625 130.625 127.805 128.172 130.117C125.734 132.43 122.32 133.586 117.93 133.586C113.57 133.586 110.172 132.461 107.734 130.211C105.312 127.945 104.102 124.828 104.102 120.859C104.102 118.312 104.672 116.102 105.812 114.227C106.953 112.352 108.578 110.914 110.688 109.914C112.797 108.914 115.227 108.414 117.977 108.414C120.82 108.414 123.281 108.938 125.359 109.984C127.453 111.031 129.055 112.484 130.164 114.344C131.289 116.203 131.852 118.281 131.852 120.578ZM121.727 120.625C121.727 117.359 120.477 115.727 117.977 115.727C115.477 115.727 114.227 117.438 114.227 120.859C114.227 124.469 115.492 126.273 118.023 126.273C120.492 126.273 121.727 124.391 121.727 120.625ZM167.203 133V119.172C167.203 118.016 166.992 117.156 166.57 116.594C166.164 116.016 165.492 115.727 164.555 115.727C163.633 115.727 162.914 116.078 162.398 116.781C161.883 117.469 161.625 118.43 161.625 119.664V133H151.641V119.406C151.641 116.953 150.805 115.727 149.133 115.727C148.117 115.727 147.352 116.086 146.836 116.805C146.32 117.508 146.062 118.523 146.062 119.852V133H136.078V109H146.062V112.797H146.156C146.531 112.125 147.125 111.445 147.938 110.758C148.766 110.055 149.695 109.492 150.727 109.07C151.758 108.633 152.875 108.414 154.078 108.414C155.781 108.414 157.211 108.75 158.367 109.422C159.539 110.094 160.516 111.156 161.297 112.609C162.141 111.266 163.266 110.234 164.672 109.516C166.078 108.781 167.641 108.414 169.359 108.414C171.875 108.414 173.805 109.234 175.148 110.875C176.492 112.516 177.164 114.883 177.164 117.977V133H167.203ZM213.312 133V119.172C213.312 118.016 213.102 117.156 212.68 116.594C212.273 116.016 211.602 115.727 210.664 115.727C209.742 115.727 209.023 116.078 208.508 116.781C207.992 117.469 207.734 118.43 207.734 119.664V133H197.75V119.406C197.75 116.953 196.914 115.727 195.242 115.727C194.227 115.727 193.461 116.086 192.945 116.805C192.43 117.508 192.172 118.523 192.172 119.852V133H182.188V109H192.172V112.797H192.266C192.641 112.125 193.234 111.445 194.047 110.758C194.875 110.055 195.805 109.492 196.836 109.07C197.867 108.633 198.984 108.414 200.188 108.414C201.891 108.414 203.32 108.75 204.477 109.422C205.648 110.094 206.625 111.156 207.406 112.609C208.25 111.266 209.375 110.234 210.781 109.516C212.188 108.781 213.75 108.414 215.469 108.414C217.984 108.414 219.914 109.234 221.258 110.875C222.602 112.516 223.273 114.883 223.273 117.977V133H213.312ZM236.898 123.836C237.07 124.867 237.664 125.68 238.68 126.273C239.695 126.852 241.039 127.141 242.711 127.141C245.039 127.141 247.242 126.695 249.32 125.805V132.133C246.898 133.102 243.961 133.586 240.508 133.586C236.32 133.586 233.062 132.516 230.734 130.375C228.406 128.234 227.242 125.289 227.242 121.539C227.242 118.961 227.75 116.688 228.766 114.719C229.797 112.75 231.312 111.211 233.312 110.102C235.328 108.977 237.547 108.414 239.969 108.414C242.453 108.414 244.578 108.898 246.344 109.867C248.109 110.836 249.445 112.195 250.352 113.945C251.273 115.695 251.734 117.742 251.734 120.086V123.836H236.898ZM242.898 118.609C242.898 115.844 241.906 114.461 239.922 114.461C239.094 114.461 238.398 114.844 237.836 115.609C237.273 116.359 236.945 117.359 236.852 118.609H242.898ZM273.75 117.555C273.375 117.383 272.867 117.227 272.227 117.086C271.586 116.945 271.055 116.875 270.633 116.875C267.336 116.875 265.688 118.781 265.688 122.594V133H255.703V109H265.688V113.219H265.781C266.391 111.703 267.258 110.555 268.383 109.773C269.508 108.977 270.82 108.578 272.32 108.578C272.867 108.578 273.344 108.672 273.75 108.859V117.555ZM296.938 132.32C296.297 132.695 295.289 133 293.914 133.234C292.539 133.469 290.953 133.586 289.156 133.586C286.625 133.586 284.359 133.078 282.359 132.062C280.375 131.031 278.836 129.594 277.742 127.75C276.648 125.906 276.102 123.836 276.102 121.539C276.102 118.789 276.68 116.438 277.836 114.484C279.008 112.516 280.672 111.016 282.828 109.984C284.984 108.938 287.484 108.414 290.328 108.414C291.891 108.414 293.289 108.516 294.523 108.719C295.773 108.922 296.578 109.156 296.938 109.422V117.203C296.438 116.812 295.719 116.469 294.781 116.172C293.844 115.875 292.977 115.727 292.18 115.727C290.227 115.727 288.742 116.195 287.727 117.133C286.727 118.055 286.227 119.359 286.227 121.047C286.227 122.703 286.719 123.992 287.703 124.914C288.703 125.82 290.07 126.273 291.805 126.273C293.664 126.273 295.375 125.828 296.938 124.938V132.32ZM310.023 123.836C310.195 124.867 310.789 125.68 311.805 126.273C312.82 126.852 314.164 127.141 315.836 127.141C318.164 127.141 320.367 126.695 322.445 125.805V132.133C320.023 133.102 317.086 133.586 313.633 133.586C309.445 133.586 306.188 132.516 303.859 130.375C301.531 128.234 300.367 125.289 300.367 121.539C300.367 118.961 300.875 116.688 301.891 114.719C302.922 112.75 304.438 111.211 306.438 110.102C308.453 108.977 310.672 108.414 313.094 108.414C315.578 108.414 317.703 108.898 319.469 109.867C321.234 110.836 322.57 112.195 323.477 113.945C324.398 115.695 324.859 117.742 324.859 120.086V123.836H310.023ZM316.023 118.609C316.023 115.844 315.031 114.461 313.047 114.461C312.219 114.461 311.523 114.844 310.961 115.609C310.398 116.359 310.07 117.359 309.977 118.609H316.023Z" fill="#040203"/>
</svg>
