<svg width="350" height="228" viewBox="0 0 350 228" fill="none" xmlns="http://www.w3.org/2000/svg">
<rect width="350" height="228" fill="black"/>
<path d="M91.3047 157.386L22.8965 126.185V114.319L91.3047 81.5801V99.0117L42.5254 119.886V120.325L91.3047 139.954V157.386ZM225.771 56.9707L174.575 179.432H153.921L204.897 56.9707H225.771ZM314.318 125.232L245.91 156.434V139.075L294.836 119.52V119.227L245.91 98.2793V80.8477L314.318 113.367V125.232Z" fill="white" fill-opacity="0.1"/>
<path d="M27.1172 126.831L9.78711 118.927V115.921L27.1172 107.627V112.043L14.7598 117.331V117.442L27.1172 122.415V126.831ZM317.486 101.393L304.516 132.416H299.284L312.198 101.393H317.486ZM339.918 118.686L322.588 126.59V122.192L334.983 117.238V117.164L322.588 111.857V107.441L339.918 115.68V118.686Z" fill="#0000FF"/>
<path d="M65.6167 106.272H58.0278V128H52.0161V106.272H44.4643V101.393H65.6167V106.272ZM83.0388 120.17H70.6443C70.8422 122.928 72.5801 124.308 75.8581 124.308C77.9486 124.308 79.7855 123.813 81.3689 122.823V127.054C79.6124 127.994 77.3301 128.464 74.5222 128.464C71.4545 128.464 69.0733 127.617 67.3786 125.922C65.684 124.215 64.8366 121.84 64.8366 118.797C64.8366 115.643 65.752 113.144 67.5827 111.301C69.4135 109.458 71.6648 108.536 74.3366 108.536C77.1075 108.536 79.2474 109.359 80.7566 111.004C82.278 112.649 83.0388 114.882 83.0388 117.702V120.17ZM77.6023 116.57C77.6023 113.849 76.5014 112.488 74.2995 112.488C73.3594 112.488 72.543 112.878 71.8503 113.657C71.17 114.437 70.7556 115.408 70.6071 116.57H77.6023ZM101.686 127.313C100.362 128.08 98.4508 128.464 95.9521 128.464C93.0328 128.464 90.6702 127.579 88.8642 125.811C87.0582 124.042 86.1552 121.759 86.1552 118.964C86.1552 115.735 87.1201 113.193 89.0498 111.338C90.9918 109.47 93.5833 108.536 96.8242 108.536C99.0631 108.536 100.684 108.833 101.686 109.427V114.399C100.461 113.484 99.094 113.026 97.5849 113.026C95.9026 113.026 94.5667 113.521 93.5771 114.511C92.5999 115.488 92.1113 116.842 92.1113 118.574C92.1113 120.257 92.5813 121.58 93.5214 122.545C94.4616 123.497 95.7542 123.974 97.3994 123.974C98.859 123.974 100.288 123.516 101.686 122.601V127.313ZM124.544 128H118.699V117.201C118.699 114.418 117.685 113.026 115.656 113.026C114.617 113.026 113.776 113.416 113.133 114.195C112.49 114.975 112.168 115.964 112.168 117.164V128H106.305V99.8711H112.168V111.82H112.242C113.677 109.631 115.626 108.536 118.087 108.536C122.392 108.536 124.544 111.134 124.544 116.329V128ZM149.221 106.272H141.632V128H135.621V106.272H128.069V101.393H149.221V106.272ZM168.406 128H162.561V125.105H162.468C161.021 127.344 159.085 128.464 156.661 128.464C152.257 128.464 150.055 125.798 150.055 120.467V109H155.9V119.947C155.9 122.632 156.964 123.974 159.091 123.974C160.143 123.974 160.984 123.609 161.615 122.879C162.246 122.137 162.561 121.135 162.561 119.873V109H168.406V128ZM185.605 127.777C184.74 128.235 183.434 128.464 181.69 128.464C177.559 128.464 175.493 126.318 175.493 122.025V113.323H172.413V109H175.493V104.899L181.338 103.229V109H185.605V113.323H181.338V121.005C181.338 122.984 182.123 123.974 183.694 123.974C184.313 123.974 184.95 123.794 185.605 123.436V127.777ZM198.593 128.464C195.426 128.464 192.934 127.579 191.115 125.811C189.309 124.029 188.406 121.617 188.406 118.574C188.406 115.432 189.347 112.977 191.227 111.208C193.107 109.427 195.649 108.536 198.853 108.536C202.007 108.536 204.481 109.427 206.275 111.208C208.068 112.977 208.965 115.321 208.965 118.24C208.965 121.395 208.037 123.887 206.182 125.718C204.339 127.549 201.809 128.464 198.593 128.464ZM198.741 113.026C197.356 113.026 196.28 113.503 195.513 114.455C194.746 115.408 194.362 116.756 194.362 118.5C194.362 122.149 195.834 123.974 198.778 123.974C201.586 123.974 202.99 122.1 202.99 118.352C202.99 114.801 201.574 113.026 198.741 113.026ZM225.923 114.288C225.218 113.905 224.396 113.713 223.455 113.713C222.181 113.713 221.186 114.183 220.468 115.123C219.751 116.051 219.392 117.319 219.392 118.927V128H213.529V109H219.392V112.525H219.466C220.394 109.952 222.064 108.666 224.476 108.666C225.094 108.666 225.577 108.74 225.923 108.889V114.288ZM232.547 105.994C231.557 105.994 230.747 105.703 230.116 105.122C229.485 104.528 229.17 103.805 229.17 102.951C229.17 102.073 229.485 101.355 230.116 100.799C230.747 100.242 231.557 99.9639 232.547 99.9639C233.548 99.9639 234.359 100.242 234.977 100.799C235.608 101.355 235.923 102.073 235.923 102.951C235.923 103.842 235.608 104.572 234.977 105.141C234.359 105.71 233.548 105.994 232.547 105.994ZM235.441 128H229.578V109H235.441V128ZM256.945 128H251.397V125.272H251.323C250.049 127.4 248.163 128.464 245.664 128.464C243.821 128.464 242.367 127.944 241.304 126.905C240.252 125.854 239.726 124.456 239.726 122.712C239.726 119.026 241.91 116.898 246.276 116.329L251.434 115.643C251.434 113.564 250.309 112.525 248.057 112.525C245.794 112.525 243.641 113.2 241.6 114.548V110.132C242.417 109.711 243.53 109.34 244.94 109.019C246.363 108.697 247.655 108.536 248.818 108.536C254.236 108.536 256.945 111.239 256.945 116.645V128ZM251.434 120.281V119.001L247.983 119.446C246.078 119.694 245.126 120.553 245.126 122.025C245.126 122.693 245.355 123.244 245.812 123.677C246.282 124.097 246.913 124.308 247.705 124.308C248.806 124.308 249.703 123.93 250.395 123.176C251.088 122.409 251.434 121.444 251.434 120.281ZM268.207 128H262.344V99.8711H268.207V128ZM272.66 127.499V122.749C273.624 123.33 274.583 123.763 275.536 124.048C276.5 124.332 277.41 124.475 278.263 124.475C279.302 124.475 280.119 124.332 280.712 124.048C281.318 123.763 281.621 123.33 281.621 122.749C281.621 122.378 281.485 122.069 281.213 121.821C280.941 121.574 280.589 121.357 280.156 121.172C279.735 120.986 279.271 120.819 278.764 120.671C278.257 120.522 277.768 120.355 277.298 120.17C276.544 119.885 275.876 119.582 275.294 119.261C274.725 118.927 274.243 118.543 273.847 118.11C273.464 117.677 273.167 117.176 272.956 116.607C272.759 116.038 272.66 115.364 272.66 114.585C272.66 113.521 272.888 112.606 273.346 111.839C273.816 111.072 274.435 110.447 275.202 109.965C275.981 109.47 276.865 109.111 277.855 108.889C278.857 108.654 279.896 108.536 280.972 108.536C281.813 108.536 282.667 108.604 283.533 108.74C284.398 108.864 285.252 109.049 286.093 109.297V113.824C285.351 113.391 284.553 113.07 283.7 112.859C282.858 112.637 282.03 112.525 281.213 112.525C280.83 112.525 280.465 112.562 280.119 112.637C279.785 112.699 279.488 112.798 279.228 112.934C278.968 113.057 278.764 113.224 278.616 113.435C278.467 113.632 278.393 113.861 278.393 114.121C278.393 114.467 278.504 114.764 278.727 115.012C278.95 115.259 279.24 115.476 279.599 115.661C279.958 115.834 280.354 115.995 280.786 116.144C281.232 116.28 281.671 116.422 282.104 116.57C282.883 116.842 283.588 117.139 284.219 117.461C284.85 117.783 285.388 118.16 285.833 118.593C286.291 119.026 286.637 119.533 286.872 120.114C287.12 120.696 287.244 121.388 287.244 122.192C287.244 123.318 286.996 124.283 286.501 125.087C286.019 125.879 285.37 126.528 284.553 127.035C283.749 127.53 282.815 127.889 281.751 128.111C280.7 128.346 279.605 128.464 278.467 128.464C276.377 128.464 274.441 128.142 272.66 127.499Z" fill="white"/>
</svg>
