<svg width="57" height="35" viewBox="0 0 57 35" fill="none" xmlns="http://www.w3.org/2000/svg">
<path d="M0.84375 34.5V0.890625H12.75C24.6875 0.890625 30.6562 6.35156 30.6562 17.2734C30.6562 22.5078 29.0234 26.6875 25.7578 29.8125C22.5078 32.9375 18.1719 34.5 12.75 34.5H0.84375ZM8.41406 7.05469V28.3594H12.1641C15.4453 28.3594 18.0156 27.375 19.875 25.4062C21.75 23.4375 22.6875 20.7578 22.6875 17.3672C22.6875 14.1641 21.7578 11.6484 19.8984 9.82031C18.0547 7.97656 15.4609 7.05469 12.1172 7.05469H8.41406ZM56.3906 34.5H36.2344V0.890625H55.6172V7.05469H43.8047V14.5312H54.7969V20.6719H43.8047V28.3594H56.3906V34.5Z" fill="#EFEFEF"/>
</svg>
