<svg width="350" height="228" viewBox="0 0 350 228" fill="none" xmlns="http://www.w3.org/2000/svg">
<rect width="350" height="228" fill="#EFEFEF"/>
<path d="M79.9922 115.773C79.9922 119.18 79.2734 122.195 77.8359 124.82C76.4141 127.43 74.375 129.445 71.7188 130.867C69.0625 132.289 66 133 62.5312 133H48.3047V99.3906H62.2266C74.0703 99.3906 79.9922 104.852 79.9922 115.773ZM69.2344 115.867C69.2344 114.227 68.8984 112.75 68.2266 111.438C67.5703 110.125 66.625 109.109 65.3906 108.391C64.1562 107.672 62.7031 107.312 61.0312 107.312H58.4297V125.078H61.2656C63.6875 125.078 65.6172 124.25 67.0547 122.594C68.5078 120.922 69.2344 118.68 69.2344 115.867ZM97.625 133V129.344H97.5312C95.9375 132.172 93.5 133.586 90.2188 133.586C87.9531 133.586 86.1797 132.914 84.8984 131.57C83.6172 130.227 82.9766 128.43 82.9766 126.18C82.9766 121.461 85.875 118.727 91.6719 117.977L97.625 117.203C97.625 116.422 97.2734 115.781 96.5703 115.281C95.8672 114.781 94.9219 114.531 93.7344 114.531C91.0469 114.531 88.2109 115.297 85.2266 116.828V110.336C86.5234 109.773 88.1484 109.312 90.1016 108.953C92.0547 108.594 93.7266 108.414 95.1172 108.414C99.1953 108.414 102.148 109.289 103.977 111.039C105.82 112.773 106.742 115.68 106.742 119.758V133H97.625ZM91.7188 124.844C91.7188 125.5 91.9219 126.039 92.3281 126.461C92.75 126.883 93.3438 127.094 94.1094 127.094C95.1562 127.094 96 126.703 96.6406 125.922C97.2969 125.141 97.625 124.141 97.625 122.922V122.008L94.25 122.477C92.5625 122.758 91.7188 123.547 91.7188 124.844ZM131.266 125.031C131.266 127.75 130.227 129.859 128.148 131.359C126.086 132.844 123.203 133.586 119.5 133.586C118.422 133.586 117.086 133.477 115.492 133.258C113.914 133.039 112.625 132.773 111.625 132.461V125.453C114.578 126.766 117.047 127.422 119.031 127.422C120.984 127.422 121.961 126.914 121.961 125.898C121.961 125.477 121.734 125.133 121.281 124.867C120.828 124.586 119.641 124.125 117.719 123.484C115.594 122.812 114.047 121.922 113.078 120.812C112.109 119.703 111.625 118.258 111.625 116.477C111.625 113.992 112.609 112.031 114.578 110.594C116.562 109.141 119.344 108.414 122.922 108.414C125.016 108.414 127.234 108.719 129.578 109.328V116.055C128.594 115.633 127.516 115.281 126.344 115C125.172 114.719 124.188 114.578 123.391 114.578C122.734 114.578 122.211 114.688 121.82 114.906C121.43 115.125 121.234 115.43 121.234 115.82C121.234 116.273 121.445 116.641 121.867 116.922C122.289 117.203 123.133 117.539 124.398 117.93C126.852 118.648 128.609 119.57 129.672 120.695C130.734 121.82 131.266 123.266 131.266 125.031ZM150.938 133V119.312C150.938 116.922 150.023 115.727 148.195 115.727C147.305 115.727 146.625 116.07 146.156 116.758C145.688 117.43 145.453 118.297 145.453 119.359V133H135.469V97.4688H145.453V112.258H145.547C146.406 111.023 147.445 110.078 148.664 109.422C149.898 108.75 151.219 108.414 152.625 108.414C155.219 108.414 157.195 109.25 158.555 110.922C159.914 112.578 160.594 115.023 160.594 118.258V133H150.938ZM192.664 120.273C192.664 122.898 192.227 125.227 191.352 127.258C190.492 129.273 189.266 130.836 187.672 131.945C186.078 133.039 184.273 133.586 182.258 133.586C180.711 133.586 179.383 133.305 178.273 132.742C177.18 132.164 176.312 131.422 175.672 130.516H175.578V133H165.594V97.4688H175.578V112.258H175.672C176.453 111.07 177.508 110.133 178.836 109.445C180.18 108.758 181.656 108.414 183.266 108.414C186.297 108.414 188.617 109.422 190.227 111.438C191.852 113.453 192.664 116.398 192.664 120.273ZM182.539 120.578C182.539 118.969 182.227 117.758 181.602 116.945C180.992 116.133 180.109 115.727 178.953 115.727C177.938 115.727 177.086 116.156 176.398 117.016C175.727 117.859 175.391 118.961 175.391 120.32V121.773C175.391 123.148 175.695 124.242 176.305 125.055C176.914 125.867 177.734 126.273 178.766 126.273C179.969 126.273 180.898 125.781 181.555 124.797C182.211 123.797 182.539 122.391 182.539 120.578ZM223.633 120.578C223.633 124.625 222.406 127.805 219.953 130.117C217.516 132.43 214.102 133.586 209.711 133.586C205.352 133.586 201.953 132.461 199.516 130.211C197.094 127.945 195.883 124.828 195.883 120.859C195.883 118.312 196.453 116.102 197.594 114.227C198.734 112.352 200.359 110.914 202.469 109.914C204.578 108.914 207.008 108.414 209.758 108.414C212.602 108.414 215.062 108.938 217.141 109.984C219.234 111.031 220.836 112.484 221.945 114.344C223.07 116.203 223.633 118.281 223.633 120.578ZM213.508 120.625C213.508 117.359 212.258 115.727 209.758 115.727C207.258 115.727 206.008 117.438 206.008 120.859C206.008 124.469 207.273 126.273 209.805 126.273C212.273 126.273 213.508 124.391 213.508 120.625ZM241.172 133V129.344H241.078C239.484 132.172 237.047 133.586 233.766 133.586C231.5 133.586 229.727 132.914 228.445 131.57C227.164 130.227 226.523 128.43 226.523 126.18C226.523 121.461 229.422 118.727 235.219 117.977L241.172 117.203C241.172 116.422 240.82 115.781 240.117 115.281C239.414 114.781 238.469 114.531 237.281 114.531C234.594 114.531 231.758 115.297 228.773 116.828V110.336C230.07 109.773 231.695 109.312 233.648 108.953C235.602 108.594 237.273 108.414 238.664 108.414C242.742 108.414 245.695 109.289 247.523 111.039C249.367 112.773 250.289 115.68 250.289 119.758V133H241.172ZM235.266 124.844C235.266 125.5 235.469 126.039 235.875 126.461C236.297 126.883 236.891 127.094 237.656 127.094C238.703 127.094 239.547 126.703 240.188 125.922C240.844 125.141 241.172 124.141 241.172 122.922V122.008L237.797 122.477C236.109 122.758 235.266 123.547 235.266 124.844ZM273.359 117.555C272.984 117.383 272.477 117.227 271.836 117.086C271.195 116.945 270.664 116.875 270.242 116.875C266.945 116.875 265.297 118.781 265.297 122.594V133H255.312V109H265.297V113.219H265.391C266 111.703 266.867 110.555 267.992 109.773C269.117 108.977 270.43 108.578 271.93 108.578C272.477 108.578 272.953 108.672 273.359 108.859V117.555ZM292.797 133V130.211H292.703C291.906 131.258 290.867 132.086 289.586 132.695C288.305 133.289 287.039 133.586 285.789 133.586C283.742 133.586 281.938 133.086 280.375 132.086C278.812 131.07 277.641 129.656 276.859 127.844C276.094 126.031 275.711 123.891 275.711 121.422C275.711 118.875 276.172 116.617 277.094 114.648C278.016 112.68 279.312 111.148 280.984 110.055C282.656 108.961 284.531 108.414 286.609 108.414C287.594 108.414 288.5 108.555 289.328 108.836C290.172 109.117 290.898 109.5 291.508 109.984C292.133 110.453 292.531 110.922 292.703 111.391H292.797V97.4688H302.781V133H292.797ZM293.008 120.273C293.008 118.836 292.688 117.719 292.047 116.922C291.422 116.125 290.57 115.727 289.492 115.727C288.414 115.727 287.531 116.227 286.844 117.227C286.172 118.211 285.836 119.531 285.836 121.188C285.836 124.578 287.008 126.273 289.352 126.273C290.461 126.273 291.344 125.82 292 124.914C292.672 123.992 293.008 122.656 293.008 120.906V120.273Z" fill="#040203"/>
</svg>
