<svg width="350" height="228" viewBox="0 0 350 228" fill="none" xmlns="http://www.w3.org/2000/svg">
<path d="M0 4.99999C0 2.23857 2.23858 0 5 0H345C347.761 0 350 2.23858 350 5V228H0V4.99999Z" fill="black"/>
<path d="M46.6094 152H45.6094V153H46.6094V152ZM46.6094 84.7812V83.7812H45.6094V84.7812H46.6094ZM66.8594 84.7812H67.8594V83.7812H66.8594V84.7812ZM66.8594 136.156H65.8594V137.156H66.8594V136.156ZM90.0156 136.156H91.0156V135.156H90.0156V136.156ZM90.0156 152V153H91.0156V152H90.0156ZM47.6094 152V84.7812H45.6094V152H47.6094ZM46.6094 85.7812H66.8594V83.7812H46.6094V85.7812ZM65.8594 84.7812V136.156H67.8594V84.7812H65.8594ZM66.8594 137.156H90.0156V135.156H66.8594V137.156ZM89.0156 136.156V152H91.0156V136.156H89.0156ZM90.0156 151H46.6094V153H90.0156V151ZM158.625 136.344L159.502 136.824L159.503 136.822L158.625 136.344ZM146.438 148.766L146.928 149.637L146.932 149.635L146.438 148.766ZM111.656 148.906L111.169 149.78L111.176 149.783L111.656 148.906ZM99.6094 136.859L98.7347 137.344L98.736 137.346L99.6094 136.859ZM111.891 88.1562L112.383 89.0267L112.387 89.0245L111.891 88.1562ZM147.047 87.9688L146.553 88.8383L146.559 88.8419L147.047 87.9688ZM158.812 100.203L157.924 100.663L157.928 100.669L158.812 100.203ZM120.141 131.281L119.331 131.868L119.335 131.873L120.141 131.281ZM161.984 118.203C161.984 124.805 160.565 130.684 157.747 135.866L159.503 136.822C162.498 131.316 163.984 125.101 163.984 118.203H161.984ZM157.748 135.864C154.93 141.015 150.999 145.02 145.943 147.896L146.932 149.635C152.313 146.574 156.508 142.297 159.502 136.824L157.748 135.864ZM145.947 147.894C140.89 150.741 135.217 152.172 128.906 152.172V154.172C135.533 154.172 141.548 152.666 146.928 149.637L145.947 147.894ZM128.906 152.172C122.75 152.172 117.167 150.787 112.137 148.029L111.176 149.783C116.52 152.713 122.437 154.172 128.906 154.172V152.172ZM112.143 148.033C107.149 145.248 103.267 141.366 100.483 136.372L98.736 137.346C101.701 142.665 105.851 146.814 111.169 149.78L112.143 148.033ZM100.484 136.375C97.6994 131.35 96.2969 125.66 96.2969 119.281H94.2969C94.2969 125.965 95.7694 131.994 98.7347 137.344L100.484 136.375ZM96.2969 119.281C96.2969 112.584 97.7177 106.591 100.539 101.282L98.7732 100.343C95.7823 105.971 94.2969 112.291 94.2969 119.281H96.2969ZM100.539 101.282C103.359 95.9765 107.303 91.8991 112.383 89.0267L111.398 87.2858C105.978 90.3509 101.766 94.711 98.7732 100.343L100.539 101.282ZM112.387 89.0245C117.47 86.1198 123.265 84.6562 129.797 84.6562V82.6562C122.954 82.6562 116.811 84.1927 111.394 87.288L112.387 89.0245ZM129.797 84.6562C136.08 84.6562 141.657 86.0576 146.553 88.8383L147.541 87.0992C142.312 84.1299 136.389 82.6562 129.797 82.6562V84.6562ZM146.559 88.8419C151.477 91.5875 155.262 95.5197 157.924 100.663L159.701 99.7434C156.863 94.2615 152.804 90.0375 147.534 87.0956L146.559 88.8419ZM157.928 100.669C160.624 105.789 161.984 111.626 161.984 118.203H163.984C163.984 111.343 162.563 105.179 159.697 99.7372L157.928 100.669ZM142.516 118.766C142.516 113.12 141.433 108.542 139.16 105.133L137.496 106.242C139.473 109.208 140.516 113.348 140.516 118.766H142.516ZM139.16 105.133C136.858 101.68 133.647 99.9062 129.609 99.9062V101.906C132.947 101.906 135.548 103.32 137.496 106.242L139.16 105.133ZM129.609 99.9062C125.283 99.9062 121.833 101.571 119.382 104.908L120.993 106.092C123.042 103.304 125.874 101.906 129.609 101.906V99.9062ZM119.382 104.908C116.959 108.206 115.812 112.774 115.812 118.484H117.812C117.812 113.008 118.916 108.919 120.993 106.092L119.382 104.908ZM115.812 118.484C115.812 124.074 116.944 128.574 119.331 131.868L120.95 130.695C118.899 127.864 117.812 123.833 117.812 118.484H115.812ZM119.335 131.873C121.776 135.196 125.124 136.875 129.281 136.875V134.875C125.751 134.875 123.006 133.492 120.947 130.689L119.335 131.873ZM129.281 136.875C131.836 136.875 134.153 136.121 136.201 134.619L135.018 133.006C133.316 134.254 131.414 134.875 129.281 134.875V136.875ZM136.201 134.619C138.252 133.114 139.809 130.982 140.896 128.28L139.041 127.533C138.066 129.955 136.717 131.761 135.018 133.006L136.201 134.619ZM140.896 128.28C141.987 125.57 142.516 122.391 142.516 118.766H140.516C140.516 122.203 140.013 125.117 139.041 127.533L140.896 128.28ZM231.922 147.594L232.416 148.463L232.922 148.176V147.594H231.922ZM220.578 151.484L220.796 152.46L220.802 152.459L220.578 151.484ZM178.906 144.359L178.228 145.095L178.23 145.096L178.906 144.359ZM174.125 100.578L173.263 100.072L173.261 100.075L174.125 100.578ZM227.281 86.1406H228.281V85.3598L227.524 85.1705L227.281 86.1406ZM227.281 103.812L226.867 104.723L228.281 105.366V103.812H227.281ZM218.375 100.906L218.181 101.887L218.191 101.889L218.375 100.906ZM195.734 105.078L195.024 104.374L195.021 104.378L195.734 105.078ZM194.938 131.984L194.184 132.641L194.187 132.646L194.938 131.984ZM211.672 136.344L211.895 137.319L212.672 137.141V136.344H211.672ZM211.672 126.734H212.672V125.734H211.672V126.734ZM198.781 126.734H197.781V127.734H198.781V126.734ZM198.781 111.406V110.406H197.781V111.406H198.781ZM231.922 111.406H232.922V110.406H231.922V111.406ZM231.428 146.724C229.022 148.09 225.352 149.361 220.354 150.51L220.802 152.459C225.867 151.295 229.759 149.972 232.416 148.463L231.428 146.724ZM220.36 150.508C215.391 151.619 210.668 152.172 206.188 152.172V154.172C210.832 154.172 215.703 153.599 220.796 152.46L220.36 150.508ZM206.188 152.172C194.566 152.172 185.747 149.276 179.582 143.622L178.23 145.096C184.878 151.193 194.246 154.172 206.188 154.172V152.172ZM179.584 143.624C173.427 137.948 170.297 129.974 170.297 119.562H168.297C168.297 130.401 171.573 138.958 178.228 145.095L179.584 143.624ZM170.297 119.562C170.297 112.594 171.869 106.443 174.989 101.081L173.261 100.075C169.943 105.776 168.297 112.281 168.297 119.562H170.297ZM174.987 101.085C178.136 95.7261 182.55 91.6575 188.252 88.867L187.373 87.0705C181.325 90.03 176.614 94.3676 173.263 100.072L174.987 101.085ZM188.252 88.867C193.964 86.072 200.729 84.6562 208.578 84.6562V82.6562C200.49 82.6562 193.411 84.1155 187.373 87.0705L188.252 88.867ZM208.578 84.6562C214.328 84.6562 220.48 85.4711 227.039 87.1108L227.524 85.1705C220.832 83.4976 214.516 82.6562 208.578 82.6562V84.6562ZM226.281 86.1406V103.812H228.281V86.1406H226.281ZM227.695 102.902C224.54 101.468 221.494 100.472 218.559 99.9233L218.191 101.889C220.943 102.403 223.835 103.344 226.867 104.723L227.695 102.902ZM218.569 99.9253C215.652 99.3483 212.477 99.0625 209.047 99.0625V101.062C212.367 101.062 215.411 101.339 218.181 101.887L218.569 99.9253ZM209.047 99.0625C203.27 99.0625 198.558 100.807 195.024 104.374L196.445 105.782C199.536 102.662 203.699 101.062 209.047 101.062V99.0625ZM195.021 104.378C191.513 107.952 189.812 112.822 189.812 118.859H191.812C191.812 113.209 193.393 108.892 196.448 105.779L195.021 104.378ZM189.812 118.859C189.812 124.612 191.228 129.249 194.184 132.641L195.691 131.327C193.147 128.407 191.812 124.294 191.812 118.859H189.812ZM194.187 132.646C197.193 136.057 201.364 137.719 206.562 137.719V135.719C201.824 135.719 198.244 134.225 195.688 131.323L194.187 132.646ZM206.562 137.719C208.888 137.719 210.686 137.595 211.895 137.319L211.449 135.369C210.471 135.593 208.862 135.719 206.562 135.719V137.719ZM212.672 136.344V126.734H210.672V136.344H212.672ZM211.672 125.734H198.781V127.734H211.672V125.734ZM199.781 126.734V111.406H197.781V126.734H199.781ZM198.781 112.406H231.922V110.406H198.781V112.406ZM230.922 111.406V147.594H232.922V111.406H230.922ZM302.969 136.344L303.846 136.824L303.847 136.822L302.969 136.344ZM290.781 148.766L291.272 149.637L291.276 149.635L290.781 148.766ZM256 148.906L255.513 149.78L255.519 149.783L256 148.906ZM243.953 136.859L243.078 137.344L243.08 137.346L243.953 136.859ZM256.234 88.1562L256.727 89.0267L256.731 89.0245L256.234 88.1562ZM291.391 87.9688L290.897 88.8383L290.903 88.8419L291.391 87.9688ZM303.156 100.203L302.268 100.663L302.271 100.669L303.156 100.203ZM264.484 131.281L263.675 131.868L263.678 131.873L264.484 131.281ZM306.328 118.203C306.328 124.805 304.908 130.684 302.09 135.866L303.847 136.822C306.842 131.316 308.328 125.101 308.328 118.203H306.328ZM302.091 135.864C299.273 141.015 295.343 145.02 290.287 147.896L291.276 149.635C296.657 146.574 300.852 142.297 303.846 136.824L302.091 135.864ZM290.291 147.894C285.234 150.741 279.561 152.172 273.25 152.172V154.172C279.876 154.172 285.891 152.666 291.272 149.637L290.291 147.894ZM273.25 152.172C267.094 152.172 261.511 150.787 256.481 148.029L255.519 149.783C260.864 152.713 266.781 154.172 273.25 154.172V152.172ZM256.487 148.033C251.493 145.248 247.611 141.366 244.827 136.372L243.08 137.346C246.045 142.665 250.195 146.814 255.513 149.78L256.487 148.033ZM244.828 136.375C242.043 131.35 240.641 125.66 240.641 119.281H238.641C238.641 125.965 240.113 131.994 243.078 137.344L244.828 136.375ZM240.641 119.281C240.641 112.584 242.061 106.591 244.883 101.282L243.117 100.343C240.126 105.971 238.641 112.291 238.641 119.281H240.641ZM244.883 101.282C247.702 95.9765 251.647 91.8991 256.727 89.0267L255.742 87.2858C250.322 90.3509 246.11 94.711 243.117 100.343L244.883 101.282ZM256.731 89.0245C261.814 86.1198 267.608 84.6562 274.141 84.6562V82.6562C267.298 82.6562 261.155 84.1927 255.738 87.288L256.731 89.0245ZM274.141 84.6562C280.424 84.6562 286 86.0576 290.897 88.8383L291.884 87.0992C286.656 84.1299 280.733 82.6562 274.141 82.6562V84.6562ZM290.903 88.8419C295.821 91.5875 299.606 95.5197 302.268 100.663L304.044 99.7434C301.207 94.2615 297.148 90.0375 291.878 87.0956L290.903 88.8419ZM302.271 100.669C304.968 105.789 306.328 111.626 306.328 118.203H308.328C308.328 111.343 306.907 105.179 304.041 99.7372L302.271 100.669ZM286.859 118.766C286.859 113.12 285.777 108.542 283.504 105.133L281.84 106.242C283.817 109.208 284.859 113.348 284.859 118.766H286.859ZM283.504 105.133C281.202 101.68 277.99 99.9062 273.953 99.9062V101.906C277.291 101.906 279.892 103.32 281.84 106.242L283.504 105.133ZM273.953 99.9062C269.626 99.9062 266.177 101.571 263.725 104.908L265.337 106.092C267.386 103.304 270.217 101.906 273.953 101.906V99.9062ZM263.725 104.908C261.302 108.206 260.156 112.774 260.156 118.484H262.156C262.156 113.008 263.26 108.919 265.337 106.092L263.725 104.908ZM260.156 118.484C260.156 124.074 261.288 128.574 263.675 131.868L265.294 130.695C263.243 127.864 262.156 123.833 262.156 118.484H260.156ZM263.678 131.873C266.119 135.196 269.467 136.875 273.625 136.875V134.875C270.095 134.875 267.349 133.492 265.29 130.689L263.678 131.873ZM273.625 136.875C276.18 136.875 278.496 136.121 280.544 134.619L279.362 133.006C277.66 134.254 275.758 134.875 273.625 134.875V136.875ZM280.544 134.619C282.596 133.114 284.153 130.982 285.24 128.28L283.385 127.533C282.41 129.955 281.06 131.761 279.362 133.006L280.544 134.619ZM285.24 128.28C286.33 125.57 286.859 122.391 286.859 118.766H284.859C284.859 122.203 284.357 125.117 283.385 127.533L285.24 128.28Z" fill="#C9C8C8"/>
<path d="M40.6094 152H39.6094V153H40.6094V152ZM40.6094 84.7812V83.7812H39.6094V84.7812H40.6094ZM60.8594 84.7812H61.8594V83.7812H60.8594V84.7812ZM60.8594 136.156H59.8594V137.156H60.8594V136.156ZM84.0156 136.156H85.0156V135.156H84.0156V136.156ZM84.0156 152V153H85.0156V152H84.0156ZM41.6094 152V84.7812H39.6094V152H41.6094ZM40.6094 85.7812H60.8594V83.7812H40.6094V85.7812ZM59.8594 84.7812V136.156H61.8594V84.7812H59.8594ZM60.8594 137.156H84.0156V135.156H60.8594V137.156ZM83.0156 136.156V152H85.0156V136.156H83.0156ZM84.0156 151H40.6094V153H84.0156V151ZM152.625 136.344L153.502 136.824L153.503 136.822L152.625 136.344ZM140.438 148.766L140.928 149.637L140.932 149.635L140.438 148.766ZM105.656 148.906L105.169 149.78L105.176 149.783L105.656 148.906ZM93.6094 136.859L92.7347 137.344L92.736 137.346L93.6094 136.859ZM105.891 88.1562L106.383 89.0267L106.387 89.0245L105.891 88.1562ZM141.047 87.9688L140.553 88.8383L140.559 88.8419L141.047 87.9688ZM152.812 100.203L151.924 100.663L151.928 100.669L152.812 100.203ZM114.141 131.281L113.331 131.868L113.335 131.873L114.141 131.281ZM155.984 118.203C155.984 124.805 154.565 130.684 151.747 135.866L153.503 136.822C156.498 131.316 157.984 125.101 157.984 118.203H155.984ZM151.748 135.864C148.93 141.015 144.999 145.02 139.943 147.896L140.932 149.635C146.313 146.574 150.508 142.297 153.502 136.824L151.748 135.864ZM139.947 147.894C134.89 150.741 129.217 152.172 122.906 152.172V154.172C129.533 154.172 135.548 152.666 140.928 149.637L139.947 147.894ZM122.906 152.172C116.75 152.172 111.167 150.787 106.137 148.029L105.176 149.783C110.52 152.713 116.437 154.172 122.906 154.172V152.172ZM106.143 148.033C101.149 145.248 97.2674 141.366 94.4828 136.372L92.736 137.346C95.7014 142.665 99.8508 146.814 105.169 149.78L106.143 148.033ZM94.484 136.375C91.6994 131.35 90.2969 125.66 90.2969 119.281H88.2969C88.2969 125.965 89.7694 131.994 92.7347 137.344L94.484 136.375ZM90.2969 119.281C90.2969 112.584 91.7177 106.591 94.5393 101.282L92.7732 100.343C89.7823 105.971 88.2969 112.291 88.2969 119.281H90.2969ZM94.5393 101.282C97.3587 95.9765 101.303 91.8991 106.383 89.0267L105.398 87.2858C99.9779 90.3509 95.7663 94.711 92.7732 100.343L94.5393 101.282ZM106.387 89.0245C111.47 86.1198 117.265 84.6562 123.797 84.6562V82.6562C116.954 82.6562 110.811 84.1927 105.394 87.288L106.387 89.0245ZM123.797 84.6562C130.08 84.6562 135.657 86.0576 140.553 88.8383L141.541 87.0992C136.312 84.1299 130.389 82.6562 123.797 82.6562V84.6562ZM140.559 88.8419C145.477 91.5875 149.262 95.5197 151.924 100.663L153.701 99.7434C150.863 94.2615 146.804 90.0375 141.534 87.0956L140.559 88.8419ZM151.928 100.669C154.624 105.789 155.984 111.626 155.984 118.203H157.984C157.984 111.343 156.563 105.179 153.697 99.7372L151.928 100.669ZM136.516 118.766C136.516 113.12 135.433 108.542 133.16 105.133L131.496 106.242C133.473 109.208 134.516 113.348 134.516 118.766H136.516ZM133.16 105.133C130.858 101.68 127.647 99.9062 123.609 99.9062V101.906C126.947 101.906 129.548 103.32 131.496 106.242L133.16 105.133ZM123.609 99.9062C119.283 99.9062 115.833 101.571 113.382 104.908L114.993 106.092C117.042 103.304 119.874 101.906 123.609 101.906V99.9062ZM113.382 104.908C110.959 108.206 109.812 112.774 109.812 118.484H111.812C111.812 113.008 112.916 108.919 114.993 106.092L113.382 104.908ZM109.812 118.484C109.812 124.074 110.944 128.574 113.331 131.868L114.95 130.695C112.899 127.864 111.812 123.833 111.812 118.484H109.812ZM113.335 131.873C115.776 135.196 119.124 136.875 123.281 136.875V134.875C119.751 134.875 117.006 133.492 114.947 130.689L113.335 131.873ZM123.281 136.875C125.836 136.875 128.153 136.121 130.201 134.619L129.018 133.006C127.316 134.254 125.414 134.875 123.281 134.875V136.875ZM130.201 134.619C132.252 133.114 133.809 130.982 134.896 128.28L133.041 127.533C132.066 129.955 130.717 131.761 129.018 133.006L130.201 134.619ZM134.896 128.28C135.987 125.57 136.516 122.391 136.516 118.766H134.516C134.516 122.203 134.013 125.117 133.041 127.533L134.896 128.28ZM225.922 147.594L226.416 148.463L226.922 148.176V147.594H225.922ZM214.578 151.484L214.796 152.46L214.802 152.459L214.578 151.484ZM172.906 144.359L172.228 145.095L172.23 145.096L172.906 144.359ZM168.125 100.578L167.263 100.072L167.261 100.075L168.125 100.578ZM221.281 86.1406H222.281V85.3598L221.524 85.1705L221.281 86.1406ZM221.281 103.812L220.867 104.723L222.281 105.366V103.812H221.281ZM212.375 100.906L212.181 101.887L212.191 101.889L212.375 100.906ZM189.734 105.078L189.024 104.374L189.021 104.378L189.734 105.078ZM188.938 131.984L188.184 132.641L188.187 132.646L188.938 131.984ZM205.672 136.344L205.895 137.319L206.672 137.141V136.344H205.672ZM205.672 126.734H206.672V125.734H205.672V126.734ZM192.781 126.734H191.781V127.734H192.781V126.734ZM192.781 111.406V110.406H191.781V111.406H192.781ZM225.922 111.406H226.922V110.406H225.922V111.406ZM225.428 146.724C223.022 148.09 219.352 149.361 214.354 150.51L214.802 152.459C219.867 151.295 223.759 149.972 226.416 148.463L225.428 146.724ZM214.36 150.508C209.391 151.619 204.668 152.172 200.188 152.172V154.172C204.832 154.172 209.703 153.599 214.796 152.46L214.36 150.508ZM200.188 152.172C188.566 152.172 179.747 149.276 173.582 143.622L172.23 145.096C178.878 151.193 188.246 154.172 200.188 154.172V152.172ZM173.584 143.624C167.427 137.948 164.297 129.974 164.297 119.562H162.297C162.297 130.401 165.573 138.958 172.228 145.095L173.584 143.624ZM164.297 119.562C164.297 112.594 165.869 106.443 168.989 101.081L167.261 100.075C163.943 105.776 162.297 112.281 162.297 119.562H164.297ZM168.987 101.085C172.136 95.7261 176.55 91.6575 182.252 88.867L181.373 87.0705C175.325 90.03 170.614 94.3676 167.263 100.072L168.987 101.085ZM182.252 88.867C187.964 86.072 194.729 84.6562 202.578 84.6562V82.6562C194.49 82.6562 187.411 84.1155 181.373 87.0705L182.252 88.867ZM202.578 84.6562C208.328 84.6562 214.48 85.4711 221.039 87.1108L221.524 85.1705C214.832 83.4976 208.516 82.6562 202.578 82.6562V84.6562ZM220.281 86.1406V103.812H222.281V86.1406H220.281ZM221.695 102.902C218.54 101.468 215.494 100.472 212.559 99.9233L212.191 101.889C214.943 102.403 217.835 103.344 220.867 104.723L221.695 102.902ZM212.569 99.9253C209.652 99.3483 206.477 99.0625 203.047 99.0625V101.062C206.367 101.062 209.411 101.339 212.181 101.887L212.569 99.9253ZM203.047 99.0625C197.27 99.0625 192.558 100.807 189.024 104.374L190.445 105.782C193.536 102.662 197.699 101.062 203.047 101.062V99.0625ZM189.021 104.378C185.513 107.952 183.812 112.822 183.812 118.859H185.812C185.812 113.209 187.393 108.892 190.448 105.779L189.021 104.378ZM183.812 118.859C183.812 124.612 185.228 129.249 188.184 132.641L189.691 131.327C187.147 128.407 185.812 124.294 185.812 118.859H183.812ZM188.187 132.646C191.193 136.057 195.364 137.719 200.562 137.719V135.719C195.824 135.719 192.244 134.225 189.688 131.323L188.187 132.646ZM200.562 137.719C202.888 137.719 204.686 137.595 205.895 137.319L205.449 135.369C204.471 135.593 202.862 135.719 200.562 135.719V137.719ZM206.672 136.344V126.734H204.672V136.344H206.672ZM205.672 125.734H192.781V127.734H205.672V125.734ZM193.781 126.734V111.406H191.781V126.734H193.781ZM192.781 112.406H225.922V110.406H192.781V112.406ZM224.922 111.406V147.594H226.922V111.406H224.922ZM296.969 136.344L297.846 136.824L297.847 136.822L296.969 136.344ZM284.781 148.766L285.272 149.637L285.276 149.635L284.781 148.766ZM250 148.906L249.513 149.78L249.519 149.783L250 148.906ZM237.953 136.859L237.078 137.344L237.08 137.346L237.953 136.859ZM250.234 88.1562L250.727 89.0267L250.731 89.0245L250.234 88.1562ZM285.391 87.9688L284.897 88.8383L284.903 88.8419L285.391 87.9688ZM297.156 100.203L296.268 100.663L296.271 100.669L297.156 100.203ZM258.484 131.281L257.675 131.868L257.678 131.873L258.484 131.281ZM300.328 118.203C300.328 124.805 298.908 130.684 296.09 135.866L297.847 136.822C300.842 131.316 302.328 125.101 302.328 118.203H300.328ZM296.091 135.864C293.273 141.015 289.343 145.02 284.287 147.896L285.276 149.635C290.657 146.574 294.852 142.297 297.846 136.824L296.091 135.864ZM284.291 147.894C279.234 150.741 273.561 152.172 267.25 152.172V154.172C273.876 154.172 279.891 152.666 285.272 149.637L284.291 147.894ZM267.25 152.172C261.094 152.172 255.511 150.787 250.481 148.029L249.519 149.783C254.864 152.713 260.781 154.172 267.25 154.172V152.172ZM250.487 148.033C245.493 145.248 241.611 141.366 238.827 136.372L237.08 137.346C240.045 142.665 244.195 146.814 249.513 149.78L250.487 148.033ZM238.828 136.375C236.043 131.35 234.641 125.66 234.641 119.281H232.641C232.641 125.965 234.113 131.994 237.078 137.344L238.828 136.375ZM234.641 119.281C234.641 112.584 236.061 106.591 238.883 101.282L237.117 100.343C234.126 105.971 232.641 112.291 232.641 119.281H234.641ZM238.883 101.282C241.702 95.9765 245.647 91.8991 250.727 89.0267L249.742 87.2858C244.322 90.3509 240.11 94.711 237.117 100.343L238.883 101.282ZM250.731 89.0245C255.814 86.1198 261.608 84.6562 268.141 84.6562V82.6562C261.298 82.6562 255.155 84.1927 249.738 87.288L250.731 89.0245ZM268.141 84.6562C274.424 84.6562 280 86.0576 284.897 88.8383L285.884 87.0992C280.656 84.1299 274.733 82.6562 268.141 82.6562V84.6562ZM284.903 88.8419C289.821 91.5875 293.606 95.5197 296.268 100.663L298.044 99.7434C295.207 94.2615 291.148 90.0375 285.878 87.0956L284.903 88.8419ZM296.271 100.669C298.968 105.789 300.328 111.626 300.328 118.203H302.328C302.328 111.343 300.907 105.179 298.041 99.7372L296.271 100.669ZM280.859 118.766C280.859 113.12 279.777 108.542 277.504 105.133L275.84 106.242C277.817 109.208 278.859 113.348 278.859 118.766H280.859ZM277.504 105.133C275.202 101.68 271.99 99.9062 267.953 99.9062V101.906C271.291 101.906 273.892 103.32 275.84 106.242L277.504 105.133ZM267.953 99.9062C263.626 99.9062 260.177 101.571 257.725 104.908L259.337 106.092C261.386 103.304 264.217 101.906 267.953 101.906V99.9062ZM257.725 104.908C255.302 108.206 254.156 112.774 254.156 118.484H256.156C256.156 113.008 257.26 108.919 259.337 106.092L257.725 104.908ZM254.156 118.484C254.156 124.074 255.288 128.574 257.675 131.868L259.294 130.695C257.243 127.864 256.156 123.833 256.156 118.484H254.156ZM257.678 131.873C260.119 135.196 263.467 136.875 267.625 136.875V134.875C264.095 134.875 261.349 133.492 259.29 130.689L257.678 131.873ZM267.625 136.875C270.18 136.875 272.496 136.121 274.544 134.619L273.362 133.006C271.66 134.254 269.758 134.875 267.625 134.875V136.875ZM274.544 134.619C276.596 133.114 278.153 130.982 279.24 128.28L277.385 127.533C276.41 129.955 275.06 131.761 273.362 133.006L274.544 134.619ZM279.24 128.28C280.33 125.57 280.859 122.391 280.859 118.766H278.859C278.859 122.203 278.357 125.117 277.385 127.533L279.24 128.28Z" fill="#C9C8C8"/>
<path d="M117.562 206H116.562V207H117.562V206ZM117.562 183.594V182.594H116.562V183.594H117.562ZM134.172 202.875L133.48 202.153L133.479 202.154L134.172 202.875ZM122.609 187.703V186.703H121.609V187.703H122.609ZM122.609 201.906H121.609V202.906H122.609V201.906ZM130.25 199.938L129.526 199.248L129.523 199.251L130.25 199.938ZM130.266 189.547L129.558 190.254L129.565 190.26L130.266 189.547ZM118.562 206V183.594H116.562V206H118.562ZM117.562 184.594H125.5V182.594H117.562V184.594ZM125.5 184.594C129.346 184.594 132.044 185.475 133.778 187.062C135.495 188.633 136.438 191.053 136.438 194.516H138.438C138.438 190.697 137.39 187.656 135.128 185.586C132.883 183.532 129.612 182.594 125.5 182.594V184.594ZM136.438 194.516C136.438 197.779 135.429 200.288 133.48 202.153L134.863 203.597C137.269 201.295 138.438 198.231 138.438 194.516H136.438ZM133.479 202.154C131.535 204.023 128.912 205 125.5 205V207C129.317 207 132.475 205.893 134.865 203.596L133.479 202.154ZM125.5 205H117.562V207H125.5V205ZM121.609 187.703V201.906H123.609V187.703H121.609ZM122.609 202.906H125.109V200.906H122.609V202.906ZM125.109 202.906C127.509 202.906 129.509 202.178 130.977 200.624L129.523 199.251C128.511 200.322 127.084 200.906 125.109 200.906V202.906ZM130.974 200.627C132.442 199.086 133.125 197.029 133.125 194.578H131.125C131.125 196.648 130.558 198.164 129.526 199.248L130.974 200.627ZM133.125 194.578C133.125 192.24 132.439 190.282 130.967 188.834L129.565 190.26C130.571 191.249 131.125 192.646 131.125 194.578H133.125ZM130.973 188.84C129.507 187.374 127.494 186.703 125.078 186.703V188.703C127.121 188.703 128.566 189.261 129.559 190.254L130.973 188.84ZM125.078 186.703H122.609V188.703H125.078V186.703ZM155.547 199.406V200.406H156.547V199.406H155.547ZM145.109 199.406V198.406H144.035L144.112 199.478L145.109 199.406ZM154.141 201.641H155.141V199.836L153.611 200.793L154.141 201.641ZM154.141 205.203L154.613 206.085L155.141 205.802V205.203H154.141ZM142.359 204.25L141.65 204.955L141.652 204.957L142.359 204.25ZM153.625 191.688L152.888 192.363L152.891 192.366L153.625 191.688ZM150.969 196.375V197.375H151.969V196.375H150.969ZM146.125 193.922L145.378 193.257L145.372 193.264L146.125 193.922ZM145.078 196.375L144.086 196.248L143.942 197.375H145.078V196.375ZM155.547 198.406H145.109V200.406H155.547V198.406ZM144.112 199.478C144.21 200.845 144.707 202.007 145.71 202.803C146.686 203.577 147.998 203.891 149.5 203.891V201.891C148.242 201.891 147.442 201.623 146.954 201.236C146.493 200.871 146.175 200.291 146.107 199.335L144.112 199.478ZM149.5 203.891C151.425 203.891 153.16 203.433 154.671 202.489L153.611 200.793C152.455 201.515 151.096 201.891 149.5 201.891V203.891ZM153.141 201.641V205.203H155.141V201.641H153.141ZM153.669 204.321C152.382 205.01 150.638 205.391 148.375 205.391V207.391C150.841 207.391 152.941 206.979 154.613 206.085L153.669 204.321ZM148.375 205.391C145.979 205.391 144.257 204.734 143.066 203.543L141.652 204.957C143.316 206.62 145.604 207.391 148.375 207.391V205.391ZM143.069 203.545C141.874 202.342 141.219 200.622 141.219 198.25H139.219C139.219 201.003 139.991 203.283 141.65 204.955L143.069 203.545ZM141.219 198.25C141.219 195.798 141.924 193.968 143.241 192.642L141.822 191.233C140.055 193.011 139.219 195.39 139.219 198.25H141.219ZM143.241 192.642C144.589 191.285 146.227 190.609 148.219 190.609V188.609C145.711 188.609 143.557 189.486 141.822 191.233L143.241 192.642ZM148.219 190.609C150.344 190.609 151.851 191.233 152.888 192.363L154.362 191.012C152.858 189.372 150.76 188.609 148.219 188.609V190.609ZM152.891 192.366C153.96 193.523 154.547 195.137 154.547 197.328H156.547C156.547 194.769 155.852 192.623 154.359 191.009L152.891 192.366ZM154.547 197.328V199.406H156.547V197.328H154.547ZM151.969 196.375C151.969 195.12 151.719 193.994 151.051 193.168C150.35 192.301 149.331 191.938 148.188 191.938V193.938C148.898 193.938 149.27 194.147 149.496 194.426C149.755 194.746 149.969 195.338 149.969 196.375H151.969ZM148.188 191.938C147.077 191.938 146.128 192.414 145.378 193.258L146.872 194.586C147.289 194.117 147.715 193.938 148.188 193.938V191.938ZM145.372 193.264C144.651 194.089 144.233 195.1 144.086 196.248L146.07 196.502C146.173 195.692 146.453 195.067 146.878 194.58L145.372 193.264ZM145.078 197.375H150.969V195.375H145.078V197.375ZM157.938 205.578H156.938V206.28L157.598 206.519L157.938 205.578ZM157.938 201.578L158.454 200.722L156.938 199.808V201.578H157.938ZM160.359 202.672L160.073 203.63L160.077 203.631L160.359 202.672ZM164.719 202.672L164.294 201.767L164.287 201.77L164.719 202.672ZM164.25 200.25L163.846 201.165L163.856 201.169L164.25 200.25ZM161.844 199.406L162.211 198.476L162.204 198.473L162.197 198.471L161.844 199.406ZM160.156 198.641L159.65 199.503L159.661 199.509L159.672 199.516L160.156 198.641ZM158.938 197.672L158.189 198.335L158.194 198.341L158.199 198.347L158.938 197.672ZM158.188 196.406L157.243 196.735L157.246 196.744L157.25 196.753L158.188 196.406ZM158.516 192.391L157.663 191.868L157.657 191.878L158.516 192.391ZM160.078 190.812L160.611 191.659L160.614 191.657L160.078 190.812ZM162.312 189.906L162.532 190.882L162.541 190.88L162.312 189.906ZM167.094 189.781L166.938 190.769L166.952 190.771L167.094 189.781ZM169.25 190.25H170.25V189.502L169.532 189.291L169.25 190.25ZM169.25 194.062L168.746 194.926L170.25 195.804V194.062H169.25ZM167.234 193.25L166.978 194.217L166.987 194.219L166.995 194.221L167.234 193.25ZM164.219 193.062L164.401 194.046L164.415 194.043L164.428 194.04L164.219 193.062ZM163.469 193.312L163.899 194.215L163.916 194.207L163.933 194.198L163.469 193.312ZM162.953 193.734L163.753 194.334L163.762 194.323L163.77 194.311L162.953 193.734ZM163.781 195.609L163.322 196.498L163.334 196.504L163.347 196.51L163.781 195.609ZM164.781 196.016L164.457 196.962L164.473 196.967L164.489 196.972L164.781 196.016ZM165.891 196.375L166.22 195.431L166.215 195.429L165.891 196.375ZM169.031 198.078L168.334 198.795L168.344 198.805L169.031 198.078ZM169.906 199.359L168.979 199.734L168.983 199.743L168.986 199.751L169.906 199.359ZM169.594 203.547L168.742 203.023L168.74 203.027L169.594 203.547ZM167.953 205.188L168.477 206.039L168.481 206.037L167.953 205.188ZM165.594 206.094L165.389 205.115L165.376 205.118L165.594 206.094ZM158.938 205.578V201.578H156.938V205.578H158.938ZM157.421 202.435C158.297 202.962 159.181 203.363 160.073 203.63L160.646 201.714C159.934 201.501 159.203 201.173 158.454 200.722L157.421 202.435ZM160.077 203.631C160.965 203.893 161.826 204.031 162.656 204.031V202.031C162.049 202.031 161.379 201.93 160.642 201.713L160.077 203.631ZM162.656 204.031C163.603 204.031 164.46 203.905 165.151 203.574L164.287 201.77C163.977 201.918 163.459 202.031 162.656 202.031V204.031ZM165.144 203.577C165.516 203.403 165.861 203.151 166.112 202.792C166.369 202.425 166.484 202.007 166.484 201.578H164.484C164.484 201.613 164.48 201.63 164.478 201.636C164.477 201.64 164.476 201.642 164.474 201.645C164.47 201.651 164.432 201.702 164.294 201.767L165.144 203.577ZM166.484 201.578C166.484 200.987 166.253 200.457 165.813 200.057L164.468 201.537C164.479 201.547 164.484 201.553 164.485 201.554C164.485 201.555 164.484 201.554 164.483 201.551C164.482 201.548 164.482 201.547 164.482 201.55C164.483 201.552 164.484 201.561 164.484 201.578H166.484ZM165.813 200.057C165.482 199.756 165.083 199.519 164.644 199.331L163.856 201.169C164.146 201.293 164.341 201.421 164.468 201.537L165.813 200.057ZM164.654 199.335C164.254 199.159 163.822 199.004 163.359 198.868L162.797 200.788C163.189 200.902 163.537 201.029 163.846 201.165L164.654 199.335ZM163.359 198.868C162.96 198.752 162.577 198.621 162.211 198.476L161.477 200.336C161.902 200.504 162.342 200.655 162.797 200.788L163.359 198.868ZM162.197 198.471C161.597 198.245 161.08 198.009 160.64 197.766L159.672 199.516C160.212 199.814 160.82 200.089 161.491 200.342L162.197 198.471ZM160.662 197.778C160.259 197.541 159.934 197.279 159.676 196.997L158.199 198.347C158.608 198.794 159.095 199.177 159.65 199.503L160.662 197.778ZM159.686 197.009C159.449 196.742 159.262 196.428 159.125 196.06L157.25 196.753C157.467 197.343 157.78 197.873 158.189 198.335L159.686 197.009ZM159.132 196.078C159.011 195.73 158.938 195.279 158.938 194.703H156.938C156.938 195.44 157.031 196.124 157.243 196.735L159.132 196.078ZM158.938 194.703C158.938 193.953 159.098 193.367 159.374 192.903L157.657 191.878C157.163 192.706 156.938 193.662 156.938 194.703H158.938ZM159.368 192.913C159.683 192.399 160.094 191.984 160.611 191.659L159.546 189.966C158.771 190.454 158.14 191.09 157.663 191.868L159.368 192.913ZM160.614 191.657C161.164 191.308 161.8 191.047 162.532 190.882L162.093 188.931C161.158 189.141 160.305 189.484 159.542 189.968L160.614 191.657ZM162.541 190.88C163.306 190.7 164.105 190.609 164.938 190.609V188.609C163.958 188.609 163.006 188.716 162.084 188.933L162.541 190.88ZM164.938 190.609C165.592 190.609 166.259 190.662 166.939 190.769L167.249 188.793C166.471 188.671 165.7 188.609 164.938 188.609V190.609ZM166.952 190.771C167.634 190.869 168.306 191.015 168.968 191.209L169.532 189.291C168.778 189.069 168.012 188.902 167.235 188.791L166.952 190.771ZM168.25 190.25V194.062H170.25V190.25H168.25ZM169.754 193.199C169.044 192.785 168.283 192.478 167.474 192.279L166.995 194.221C167.623 194.376 168.206 194.611 168.746 194.926L169.754 193.199ZM167.49 192.283C166.704 192.075 165.92 191.969 165.141 191.969V193.969C165.736 193.969 166.348 194.05 166.978 194.217L167.49 192.283ZM165.141 191.969C164.753 191.969 164.375 192.006 164.009 192.085L164.428 194.04C164.646 193.994 164.882 193.969 165.141 193.969V191.969ZM164.037 192.079C163.672 192.147 163.325 192.259 163.005 192.427L163.933 194.198C164.05 194.137 164.203 194.082 164.401 194.046L164.037 192.079ZM163.039 192.41C162.684 192.579 162.371 192.825 162.136 193.158L163.77 194.311C163.785 194.29 163.816 194.255 163.899 194.215L163.039 192.41ZM162.153 193.134C161.892 193.483 161.766 193.889 161.766 194.312H163.766C163.766 194.306 163.766 194.303 163.766 194.303C163.766 194.304 163.765 194.308 163.764 194.312C163.762 194.317 163.76 194.322 163.758 194.327C163.755 194.331 163.754 194.334 163.753 194.334L162.153 193.134ZM161.766 194.312C161.766 194.84 161.944 195.331 162.304 195.731L163.79 194.394C163.776 194.378 163.773 194.37 163.772 194.368C163.771 194.365 163.766 194.35 163.766 194.312H161.766ZM162.304 195.731C162.587 196.046 162.935 196.297 163.322 196.498L164.241 194.721C164.023 194.609 163.882 194.495 163.79 194.394L162.304 195.731ZM163.347 196.51C163.689 196.675 164.06 196.826 164.457 196.962L165.106 195.07C164.773 194.956 164.477 194.835 164.216 194.709L163.347 196.51ZM164.489 196.972C164.853 197.083 165.213 197.2 165.566 197.321L166.215 195.429C165.84 195.3 165.459 195.177 165.073 195.059L164.489 196.972ZM165.561 197.319C166.181 197.536 166.733 197.769 167.218 198.016L168.126 196.234C167.549 195.94 166.912 195.673 166.22 195.431L165.561 197.319ZM167.218 198.016C167.672 198.248 168.04 198.509 168.334 198.795L169.728 197.361C169.272 196.918 168.734 196.544 168.126 196.234L167.218 198.016ZM168.344 198.805C168.626 199.071 168.835 199.378 168.979 199.734L170.833 198.985C170.581 198.361 170.208 197.814 169.718 197.352L168.344 198.805ZM168.986 199.751C169.129 200.088 169.219 200.532 169.219 201.109H171.219C171.219 200.333 171.1 199.61 170.826 198.968L168.986 199.751ZM169.219 201.109C169.219 201.908 169.045 202.531 168.742 203.023L170.445 204.071C170.976 203.208 171.219 202.206 171.219 201.109H169.219ZM168.74 203.027C168.418 203.554 167.985 203.99 167.425 204.338L168.481 206.037C169.296 205.53 169.957 204.873 170.448 204.067L168.74 203.027ZM167.429 204.336C166.864 204.684 166.189 204.948 165.389 205.115L165.799 207.073C166.791 206.865 167.688 206.525 168.477 206.039L167.429 204.336ZM165.376 205.118C164.566 205.299 163.717 205.391 162.828 205.391V207.391C163.856 207.391 164.851 207.284 165.812 207.07L165.376 205.118ZM162.828 205.391C161.172 205.391 159.657 205.136 158.277 204.638L157.598 206.519C159.218 207.104 160.964 207.391 162.828 207.391V205.391ZM174.031 186.734L173.346 187.463L173.354 187.47L174.031 186.734ZM178.125 183.094L177.456 183.837L177.463 183.844L178.125 183.094ZM178.125 186.75L177.455 186.007L177.448 186.014L178.125 186.75ZM178.516 206V207H179.516V206H178.516ZM173.578 206H172.578V207H173.578V206ZM173.578 190V189H172.578V190H173.578ZM178.516 190H179.516V189H178.516V190ZM176.078 186.469C175.455 186.469 175.027 186.292 174.709 185.999L173.354 187.47C174.098 188.156 175.035 188.469 176.078 188.469V186.469ZM174.717 186.006C174.383 185.692 174.234 185.345 174.234 184.906H172.234C172.234 185.905 172.617 186.777 173.346 187.463L174.717 186.006ZM174.234 184.906C174.234 184.439 174.387 184.113 174.693 183.844L173.37 182.344C172.613 183.012 172.234 183.894 172.234 184.906H174.234ZM174.693 183.844C175.01 183.564 175.443 183.391 176.078 183.391V181.391C175.047 181.391 174.115 181.686 173.37 182.344L174.693 183.844ZM176.078 183.391C176.728 183.391 177.155 183.566 177.456 183.837L178.794 182.35C178.054 181.684 177.116 181.391 176.078 181.391V183.391ZM177.463 183.844C177.769 184.113 177.922 184.439 177.922 184.906H179.922C179.922 183.894 179.544 183.012 178.787 182.344L177.463 183.844ZM177.922 184.906C177.922 185.389 177.765 185.728 177.455 186.007L178.795 187.493C179.547 186.814 179.922 185.924 179.922 184.906H177.922ZM177.448 186.014C177.146 186.292 176.722 186.469 176.078 186.469V188.469C177.122 188.469 178.062 188.167 178.802 187.486L177.448 186.014ZM178.516 205H173.578V207H178.516V205ZM174.578 206V190H172.578V206H174.578ZM173.578 191H178.516V189H173.578V191ZM177.516 190V206H179.516V190H177.516ZM196.281 211.062L195.594 210.336L195.592 210.338L196.281 211.062ZM183.688 212.594H182.688V213.219L183.249 213.493L183.688 212.594ZM183.688 208.438L184.191 207.573L182.688 206.698V208.438H183.688ZM192.547 208.547L191.856 207.824L191.852 207.828L192.547 208.547ZM193.922 203.703H194.922V202.703H193.922V203.703ZM193.859 203.703V202.703H193.306L193.012 203.171L193.859 203.703ZM184.016 204.234L183.247 204.875L183.247 204.875L184.016 204.234ZM193.859 191.859L193.019 192.402L193.315 192.859H193.859V191.859ZM193.922 191.859V192.859H194.922V191.859H193.922ZM193.922 190V189H192.922V190H193.922ZM198.859 190H199.859V189H198.859V190ZM193.078 194.469L192.307 195.106L192.312 195.112L192.317 195.118L193.078 194.469ZM188.125 201.453L187.329 202.058L187.333 202.063L188.125 201.453ZM193.031 201.438L192.251 200.812L192.25 200.813L193.031 201.438ZM197.859 204.172C197.859 206.94 197.065 208.946 195.594 210.336L196.968 211.789C198.935 209.929 199.859 207.341 199.859 204.172H197.859ZM195.592 210.338C194.119 211.739 191.914 212.516 188.812 212.516V214.516C192.232 214.516 195.006 213.657 196.971 211.787L195.592 210.338ZM188.812 212.516C186.734 212.516 185.196 212.217 184.126 211.695L183.249 213.493C184.7 214.2 186.578 214.516 188.812 214.516V212.516ZM184.688 212.594V208.438H182.688V212.594H184.688ZM183.184 209.302C184.962 210.337 186.795 210.875 188.672 210.875V208.875C187.194 208.875 185.705 208.455 184.191 207.573L183.184 209.302ZM188.672 210.875C190.515 210.875 192.087 210.382 193.242 209.266L191.852 207.828C191.174 208.483 190.162 208.875 188.672 208.875V210.875ZM193.237 209.27C194.389 208.171 194.922 206.696 194.922 204.969H192.922C192.922 206.263 192.538 207.173 191.856 207.824L193.237 209.27ZM194.922 204.969V203.703H192.922V204.969H194.922ZM193.922 202.703H193.859V204.703H193.922V202.703ZM193.012 203.171C192.079 204.658 190.745 205.391 188.875 205.391V207.391C191.401 207.391 193.39 206.331 194.706 204.235L193.012 203.171ZM188.875 205.391C187.099 205.391 185.773 204.781 184.784 203.594L183.247 204.875C184.654 206.563 186.567 207.391 188.875 207.391V205.391ZM184.784 203.594C183.775 202.383 183.219 200.705 183.219 198.453H181.219C181.219 201.034 181.861 203.21 183.247 204.875L184.784 203.594ZM183.219 198.453C183.219 195.907 183.844 194.007 184.986 192.642L183.452 191.358C181.927 193.181 181.219 195.582 181.219 198.453H183.219ZM184.986 192.642C186.119 191.287 187.587 190.609 189.484 190.609V188.609C187.027 188.609 184.985 189.525 183.452 191.358L184.986 192.642ZM189.484 190.609C191.129 190.609 192.254 191.217 193.019 192.402L194.699 191.317C193.527 189.502 191.735 188.609 189.484 188.609V190.609ZM193.859 192.859H193.922V190.859H193.859V192.859ZM194.922 191.859V190H192.922V191.859H194.922ZM193.922 191H198.859V189H193.922V191ZM197.859 190V204.172H199.859V190H197.859ZM194.984 198.312V197.047H192.984V198.312H194.984ZM194.984 197.047C194.984 195.82 194.611 194.725 193.839 193.82L192.317 195.118C192.753 195.629 192.984 196.252 192.984 197.047H194.984ZM193.849 193.832C193.059 192.876 191.997 192.391 190.75 192.391V194.391C191.42 194.391 191.909 194.624 192.307 195.106L193.849 193.832ZM190.75 192.391C189.35 192.391 188.185 192.96 187.365 194.081L188.979 195.262C189.408 194.676 189.963 194.391 190.75 194.391V192.391ZM187.365 194.081C186.568 195.17 186.234 196.612 186.234 198.281H188.234C188.234 196.847 188.526 195.882 188.979 195.262L187.365 194.081ZM186.234 198.281C186.234 199.756 186.563 201.05 187.329 202.058L188.921 200.848C188.5 200.294 188.234 199.474 188.234 198.281H186.234ZM187.333 202.063C188.129 203.097 189.243 203.609 190.562 203.609V201.609C189.82 201.609 189.309 201.351 188.917 200.843L187.333 202.063ZM190.562 203.609C191.88 203.609 192.993 203.086 193.812 202.062L192.25 200.813C191.82 201.351 191.287 201.609 190.562 201.609V203.609ZM193.811 202.063C194.624 201.051 194.984 199.769 194.984 198.312H192.984C192.984 199.44 192.709 200.241 192.251 200.812L193.811 202.063ZM218.938 206V207H219.938V206H218.938ZM214.016 206H213.016V207H214.016V206ZM209.25 194.375L208.485 193.731L209.25 194.375ZM208.422 206V207H209.422V206H208.422ZM203.484 206H202.484V207H203.484V206ZM203.484 190V189H202.484V190H203.484ZM208.422 190H209.422V189H208.422V190ZM208.422 192.531H207.422V193.531H208.422V192.531ZM208.484 192.531V193.531H209.048L209.34 193.048L208.484 192.531ZM218.938 205H214.016V207H218.938V205ZM215.016 206V197.109H213.016V206H215.016ZM215.016 197.109C215.016 195.781 214.784 194.605 214.165 193.739C213.502 192.811 212.508 192.391 211.359 192.391V194.391C211.982 194.391 212.315 194.59 212.538 194.902C212.805 195.275 213.016 195.959 213.016 197.109H215.016ZM211.359 192.391C210.209 192.391 209.226 192.85 208.485 193.731L210.015 195.019C210.378 194.587 210.802 194.391 211.359 194.391V192.391ZM208.485 193.731C207.755 194.599 207.422 195.673 207.422 196.875H209.422C209.422 196.056 209.641 195.464 210.015 195.019L208.485 193.731ZM207.422 196.875V206H209.422V196.875H207.422ZM208.422 205H203.484V207H208.422V205ZM204.484 206V190H202.484V206H204.484ZM203.484 191H208.422V189H203.484V191ZM207.422 190V192.531H209.422V190H207.422ZM208.422 193.531H208.484V191.531H208.422V193.531ZM209.34 193.048C210.339 191.396 211.73 190.609 213.625 190.609V188.609C211.02 188.609 208.984 189.771 207.629 192.014L209.34 193.048ZM213.625 190.609C215.178 190.609 216.182 191.08 216.831 191.885C217.512 192.731 217.938 194.113 217.938 196.203H219.938C219.938 193.897 219.477 191.982 218.388 190.63C217.266 189.237 215.614 188.609 213.625 188.609V190.609ZM217.938 196.203V206H219.938V196.203H217.938ZM222.312 205.578H221.312V206.28L221.973 206.519L222.312 205.578ZM222.312 201.578L222.829 200.722L221.312 199.808V201.578H222.312ZM224.734 202.672L224.448 203.63L224.452 203.631L224.734 202.672ZM229.094 202.672L228.669 201.767L228.662 201.77L229.094 202.672ZM228.625 200.25L228.221 201.165L228.231 201.169L228.625 200.25ZM226.219 199.406L226.586 198.476L226.579 198.473L226.572 198.471L226.219 199.406ZM224.531 198.641L224.025 199.503L224.036 199.509L224.047 199.516L224.531 198.641ZM223.312 197.672L222.564 198.335L222.569 198.341L222.574 198.347L223.312 197.672ZM222.562 196.406L221.618 196.735L221.621 196.744L221.625 196.753L222.562 196.406ZM222.891 192.391L222.038 191.868L222.032 191.878L222.891 192.391ZM224.453 190.812L224.986 191.659L224.989 191.657L224.453 190.812ZM226.688 189.906L226.907 190.882L226.916 190.88L226.688 189.906ZM231.469 189.781L231.313 190.769L231.327 190.771L231.469 189.781ZM233.625 190.25H234.625V189.502L233.907 189.291L233.625 190.25ZM233.625 194.062L233.121 194.926L234.625 195.804V194.062H233.625ZM231.609 193.25L231.353 194.217L231.362 194.219L231.37 194.221L231.609 193.25ZM228.594 193.062L228.776 194.046L228.79 194.043L228.803 194.04L228.594 193.062ZM227.844 193.312L228.274 194.215L228.291 194.207L228.308 194.198L227.844 193.312ZM227.328 193.734L228.128 194.334L228.137 194.323L228.145 194.311L227.328 193.734ZM228.156 195.609L227.697 196.498L227.709 196.504L227.722 196.51L228.156 195.609ZM229.156 196.016L228.832 196.962L228.848 196.967L228.864 196.972L229.156 196.016ZM230.266 196.375L230.595 195.431L230.59 195.429L230.266 196.375ZM233.406 198.078L232.709 198.795L232.719 198.805L233.406 198.078ZM234.281 199.359L233.354 199.734L233.358 199.743L233.361 199.751L234.281 199.359ZM233.969 203.547L233.117 203.023L233.115 203.027L233.969 203.547ZM232.328 205.188L232.852 206.039L232.856 206.037L232.328 205.188ZM229.969 206.094L229.764 205.115L229.751 205.118L229.969 206.094ZM223.312 205.578V201.578H221.312V205.578H223.312ZM221.796 202.435C222.672 202.962 223.556 203.363 224.448 203.63L225.021 201.714C224.309 201.501 223.578 201.173 222.829 200.722L221.796 202.435ZM224.452 203.631C225.34 203.893 226.201 204.031 227.031 204.031V202.031C226.424 202.031 225.754 201.93 225.017 201.713L224.452 203.631ZM227.031 204.031C227.978 204.031 228.835 203.905 229.526 203.574L228.662 201.77C228.352 201.918 227.834 202.031 227.031 202.031V204.031ZM229.519 203.577C229.891 203.403 230.236 203.151 230.487 202.792C230.744 202.425 230.859 202.007 230.859 201.578H228.859C228.859 201.613 228.855 201.63 228.853 201.636C228.852 201.64 228.851 201.642 228.849 201.645C228.845 201.651 228.807 201.702 228.669 201.767L229.519 203.577ZM230.859 201.578C230.859 200.987 230.628 200.457 230.188 200.057L228.843 201.537C228.854 201.547 228.859 201.553 228.86 201.554C228.86 201.555 228.859 201.554 228.858 201.551C228.857 201.548 228.857 201.547 228.857 201.55C228.858 201.552 228.859 201.561 228.859 201.578H230.859ZM230.188 200.057C229.857 199.756 229.458 199.519 229.019 199.331L228.231 201.169C228.521 201.293 228.716 201.421 228.843 201.537L230.188 200.057ZM229.029 199.335C228.629 199.159 228.197 199.004 227.734 198.868L227.172 200.788C227.564 200.902 227.912 201.029 228.221 201.165L229.029 199.335ZM227.734 198.868C227.335 198.752 226.952 198.621 226.586 198.476L225.852 200.336C226.277 200.504 226.717 200.655 227.172 200.788L227.734 198.868ZM226.572 198.471C225.972 198.245 225.455 198.009 225.015 197.766L224.047 199.516C224.587 199.814 225.195 200.089 225.866 200.342L226.572 198.471ZM225.037 197.778C224.634 197.541 224.309 197.279 224.051 196.997L222.574 198.347C222.983 198.794 223.47 199.177 224.025 199.503L225.037 197.778ZM224.061 197.009C223.824 196.742 223.637 196.428 223.5 196.06L221.625 196.753C221.842 197.343 222.155 197.873 222.564 198.335L224.061 197.009ZM223.507 196.078C223.386 195.73 223.312 195.279 223.312 194.703H221.312C221.312 195.44 221.406 196.124 221.618 196.735L223.507 196.078ZM223.312 194.703C223.312 193.953 223.473 193.367 223.749 192.903L222.032 191.878C221.538 192.706 221.312 193.662 221.312 194.703H223.312ZM223.743 192.913C224.058 192.399 224.469 191.984 224.986 191.659L223.921 189.966C223.146 190.454 222.515 191.09 222.038 191.868L223.743 192.913ZM224.989 191.657C225.539 191.308 226.175 191.047 226.907 190.882L226.468 188.931C225.533 189.141 224.68 189.484 223.917 189.968L224.989 191.657ZM226.916 190.88C227.681 190.7 228.48 190.609 229.312 190.609V188.609C228.333 188.609 227.381 188.716 226.459 188.933L226.916 190.88ZM229.312 190.609C229.967 190.609 230.634 190.662 231.314 190.769L231.624 188.793C230.846 188.671 230.075 188.609 229.312 188.609V190.609ZM231.327 190.771C232.009 190.869 232.681 191.015 233.343 191.209L233.907 189.291C233.153 189.069 232.387 188.902 231.61 188.791L231.327 190.771ZM232.625 190.25V194.062H234.625V190.25H232.625ZM234.129 193.199C233.419 192.785 232.658 192.478 231.849 192.279L231.37 194.221C231.998 194.376 232.581 194.611 233.121 194.926L234.129 193.199ZM231.865 192.283C231.079 192.075 230.295 191.969 229.516 191.969V193.969C230.111 193.969 230.723 194.05 231.353 194.217L231.865 192.283ZM229.516 191.969C229.128 191.969 228.75 192.006 228.384 192.085L228.803 194.04C229.021 193.994 229.257 193.969 229.516 193.969V191.969ZM228.412 192.079C228.047 192.147 227.7 192.259 227.38 192.427L228.308 194.198C228.425 194.137 228.578 194.082 228.776 194.046L228.412 192.079ZM227.414 192.41C227.059 192.579 226.746 192.825 226.511 193.158L228.145 194.311C228.16 194.29 228.191 194.255 228.274 194.215L227.414 192.41ZM226.528 193.134C226.267 193.483 226.141 193.889 226.141 194.312H228.141C228.141 194.306 228.141 194.303 228.141 194.303C228.141 194.304 228.14 194.308 228.139 194.312C228.137 194.317 228.135 194.322 228.133 194.327C228.13 194.331 228.129 194.334 228.128 194.334L226.528 193.134ZM226.141 194.312C226.141 194.84 226.319 195.331 226.679 195.731L228.165 194.394C228.151 194.378 228.148 194.37 228.147 194.368C228.146 194.365 228.141 194.35 228.141 194.312H226.141ZM226.679 195.731C226.962 196.046 227.31 196.297 227.697 196.498L228.616 194.721C228.398 194.609 228.257 194.495 228.165 194.394L226.679 195.731ZM227.722 196.51C228.064 196.675 228.435 196.826 228.832 196.962L229.481 195.07C229.148 194.956 228.852 194.835 228.591 194.709L227.722 196.51ZM228.864 196.972C229.228 197.083 229.588 197.2 229.941 197.321L230.59 195.429C230.215 195.3 229.834 195.177 229.448 195.059L228.864 196.972ZM229.936 197.319C230.556 197.536 231.108 197.769 231.593 198.016L232.501 196.234C231.924 195.94 231.287 195.673 230.595 195.431L229.936 197.319ZM231.593 198.016C232.047 198.248 232.415 198.509 232.709 198.795L234.103 197.361C233.647 196.918 233.109 196.544 232.501 196.234L231.593 198.016ZM232.719 198.805C233.001 199.071 233.21 199.378 233.354 199.734L235.208 198.985C234.956 198.361 234.583 197.814 234.093 197.352L232.719 198.805ZM233.361 199.751C233.504 200.088 233.594 200.532 233.594 201.109H235.594C235.594 200.333 235.475 199.61 235.201 198.968L233.361 199.751ZM233.594 201.109C233.594 201.908 233.42 202.531 233.117 203.023L234.82 204.071C235.351 203.208 235.594 202.206 235.594 201.109H233.594ZM233.115 203.027C232.793 203.554 232.36 203.99 231.8 204.338L232.856 206.037C233.671 205.53 234.332 204.873 234.823 204.067L233.115 203.027ZM231.804 204.336C231.239 204.684 230.564 204.948 229.764 205.115L230.174 207.073C231.166 206.865 232.063 206.525 232.852 206.039L231.804 204.336ZM229.751 205.118C228.941 205.299 228.092 205.391 227.203 205.391V207.391C228.231 207.391 229.226 207.284 230.187 207.07L229.751 205.118ZM227.203 205.391C225.547 205.391 224.032 205.136 222.652 204.638L221.973 206.519C223.593 207.104 225.339 207.391 227.203 207.391V205.391Z" fill="white"/>
<path d="M37.625 61.2031L38.0607 62.1032L38.625 61.8301V61.2031H37.625ZM23.4688 42.5625L22.76 41.857L22.7583 41.8587L23.4688 42.5625ZM37.625 40.0469H38.625V39.3493L37.9704 39.1084L37.625 40.0469ZM37.625 44.9062L37.1123 45.7648L38.625 46.6682V44.9062H37.625ZM27.4062 45.5469L28.1218 46.2455L27.4062 45.5469ZM27.2969 56.1094L26.5695 56.7957L26.5723 56.7986L27.2969 56.1094ZM37.625 56.5938H38.625V54.8487L37.1194 55.731L37.625 56.5938ZM37.1893 60.303C35.7368 61.0062 33.7662 61.3906 31.2188 61.3906V63.3906C33.9422 63.3906 36.2424 62.9834 38.0607 62.1032L37.1893 60.303ZM31.2188 61.3906C27.988 61.3906 25.5663 60.4483 23.8257 58.6616L22.3931 60.0572C24.5899 62.3121 27.5745 63.3906 31.2188 63.3906V61.3906ZM23.8257 58.6616C22.0731 56.8626 21.1562 54.4388 21.1562 51.2812H19.1562C19.1562 54.8529 20.2082 57.8145 22.3931 60.0572L23.8257 58.6616ZM21.1562 51.2812C21.1562 47.9209 22.1831 45.2812 24.1792 43.2663L22.7583 41.8587C20.3377 44.3021 19.1562 47.4749 19.1562 51.2812H21.1562ZM24.1775 43.2679C26.1848 41.2512 28.7928 40.2188 32.0938 40.2188V38.2188C28.3322 38.2188 25.1902 39.4155 22.76 41.8571L24.1775 43.2679ZM32.0938 40.2188C34.2038 40.2188 35.9227 40.4859 37.2796 40.9853L37.9704 39.1084C36.3273 38.5037 34.3587 38.2188 32.0938 38.2188V40.2188ZM36.625 40.0469V44.9062H38.625V40.0469H36.625ZM38.1377 44.0477C36.4679 43.0505 34.5792 42.5625 32.5 42.5625V44.5625C34.2542 44.5625 35.7821 44.9704 37.1123 45.7648L38.1377 44.0477ZM32.5 42.5625C30.1671 42.5625 28.1972 43.3054 26.6907 44.8483L28.1218 46.2455C29.1987 45.1425 30.6246 44.5625 32.5 44.5625V42.5625ZM26.6907 44.8483C25.1778 46.3979 24.4688 48.462 24.4688 50.9219H26.4688C26.4688 48.8609 27.0514 47.3417 28.1218 46.2455L26.6907 44.8483ZM24.4688 50.9219C24.4688 53.2845 25.1388 55.2794 26.5695 56.7957L28.0242 55.4231C27.0174 54.3561 26.4688 52.8926 26.4688 50.9219H24.4688ZM26.5723 56.7986C28.0115 58.3116 29.932 59.0312 32.2188 59.0312V57.0312C30.3805 57.0312 29.0198 56.4697 28.0214 55.4202L26.5723 56.7986ZM32.2188 59.0312C34.3581 59.0312 36.3358 58.5083 38.1306 57.4565L37.1194 55.731C35.6434 56.5959 34.0169 57.0312 32.2188 57.0312V59.0312ZM36.625 56.5938V61.2031H38.625V56.5938H36.625ZM42.875 60.1562L42.1728 60.8682L42.1777 60.873L42.875 60.1562ZM42.9688 47.8594L43.654 48.5877L43.6565 48.5853L42.9688 47.8594ZM55.6406 47.8594L54.936 48.5689L54.9384 48.5714L55.6406 47.8594ZM55.5625 60.0781L54.8602 59.3663L54.8578 59.3686L55.5625 60.0781ZM49.1719 61.3906C46.6976 61.3906 44.8732 60.705 43.5723 59.4395L42.1777 60.873C43.9393 62.5867 46.3128 63.3906 49.1719 63.3906V61.3906ZM43.5772 59.4443C42.2842 58.1689 41.5938 56.4147 41.5938 54.0625H39.5938C39.5938 56.8353 40.4242 59.1436 42.1728 60.8682L43.5772 59.4443ZM41.5938 54.0625C41.5938 51.628 42.3141 49.8483 43.654 48.5877L42.2835 47.131C40.4568 48.8496 39.5938 51.2053 39.5938 54.0625H41.5938ZM43.6565 48.5853C45.0125 47.3007 46.8848 46.6094 49.3906 46.6094V44.6094C46.5006 44.6094 44.0917 45.418 42.281 47.1334L43.6565 48.5853ZM49.3906 46.6094C51.8519 46.6094 53.6568 47.2986 54.936 48.5689L56.3453 47.1498C54.6036 45.4202 52.2418 44.6094 49.3906 44.6094V46.6094ZM54.9384 48.5714C56.2278 49.843 56.9062 51.5444 56.9062 53.7812H58.9062C58.9062 51.1014 58.0743 48.8549 56.3428 47.1474L54.9384 48.5714ZM56.9062 53.7812C56.9062 56.2301 56.1933 58.0509 54.8602 59.3663L56.2648 60.79C58.0567 59.022 58.9062 56.6449 58.9062 53.7812H56.9062ZM54.8578 59.3686C53.5355 60.6821 51.6827 61.3906 49.1719 61.3906V63.3906C52.0777 63.3906 54.4854 62.5575 56.2672 60.7876L54.8578 59.3686ZM49.2969 48.3906C47.873 48.3906 46.6617 48.8955 45.7992 49.9666L47.357 51.2209C47.7862 50.6878 48.3874 50.3906 49.2969 50.3906V48.3906ZM45.7992 49.9666C44.9603 51.0085 44.6094 52.3982 44.6094 54H46.6094C46.6094 52.6643 46.9043 51.7832 47.357 51.2209L45.7992 49.9666ZM44.6094 54C44.6094 55.6448 44.9369 57.0637 45.7608 58.0849C46.6178 59.1472 47.8707 59.6094 49.3281 59.6094V57.6094C48.3063 57.6094 47.6999 57.3033 47.3174 56.8291C46.9017 56.3139 46.6094 55.4281 46.6094 54H44.6094ZM49.3281 59.6094C50.7548 59.6094 51.97 59.118 52.7886 58.0254C53.5665 56.987 53.875 55.5491 53.875 53.875H51.875C51.875 55.3571 51.5923 56.2865 51.188 56.8262C50.8243 57.3116 50.266 57.6094 49.3281 57.6094V59.6094ZM53.875 53.875C53.875 52.2738 53.56 50.888 52.7621 49.888C51.9299 48.845 50.7112 48.3906 49.2969 48.3906V50.3906C50.268 50.3906 50.8384 50.6837 51.1988 51.1354C51.5936 51.6303 51.875 52.4866 51.875 53.875H53.875ZM66.5469 62V63H67.5469V62H66.5469ZM61.6094 62H60.6094V63H61.6094V62ZM61.6094 38.3125V37.3125H60.6094V38.3125H61.6094ZM66.5469 38.3125H67.5469V37.3125H66.5469V38.3125ZM66.5469 61H61.6094V63H66.5469V61ZM62.6094 62V38.3125H60.6094V62H62.6094ZM61.6094 39.3125H66.5469V37.3125H61.6094V39.3125ZM65.5469 38.3125V62H67.5469V38.3125H65.5469ZM76.1406 62V63H77.1406V62H76.1406ZM71.2031 62H70.2031V63H71.2031V62ZM71.2031 38.3125V37.3125H70.2031V38.3125H71.2031ZM76.1406 38.3125H77.1406V37.3125H76.1406V38.3125ZM76.1406 61H71.2031V63H76.1406V61ZM72.2031 62V38.3125H70.2031V62H72.2031ZM71.2031 39.3125H76.1406V37.3125H71.2031V39.3125ZM75.1406 38.3125V62H77.1406V38.3125H75.1406ZM95.1719 55.4062V56.4062H96.1719V55.4062H95.1719ZM84.7344 55.4062V54.4062H83.6601L83.7369 55.4778L84.7344 55.4062ZM93.7656 57.6406H94.7656V55.8364L93.2356 56.7926L93.7656 57.6406ZM93.7656 61.2031L94.2375 62.0848L94.7656 61.8021V61.2031H93.7656ZM81.9844 60.25L81.2747 60.9545L81.2773 60.9571L81.9844 60.25ZM93.25 47.6875L92.5131 48.3635L92.5158 48.3665L93.25 47.6875ZM90.5938 52.375V53.375H91.5938V52.375H90.5938ZM85.75 49.9219L85.0026 49.2575L84.9967 49.2642L85.75 49.9219ZM84.7031 52.375L83.7112 52.2484L83.5673 53.375H84.7031V52.375ZM95.1719 54.4062H84.7344V56.4062H95.1719V54.4062ZM83.7369 55.4778C83.835 56.8449 84.3323 58.0068 85.3354 58.8028C86.311 59.5771 87.6228 59.8906 89.125 59.8906V57.8906C87.8668 57.8906 87.0666 57.6235 86.5787 57.2362C86.1183 56.8709 85.8004 56.2905 85.7318 55.3347L83.7369 55.4778ZM89.125 59.8906C91.0498 59.8906 92.7849 59.4329 94.2956 58.4886L93.2356 56.7926C92.0797 57.5151 90.7211 57.8906 89.125 57.8906V59.8906ZM92.7656 57.6406V61.2031H94.7656V57.6406H92.7656ZM93.2937 60.3215C92.007 61.0102 90.2634 61.3906 88 61.3906V63.3906C90.4657 63.3906 92.566 62.9794 94.2375 62.0848L93.2937 60.3215ZM88 61.3906C85.6041 61.3906 83.8824 60.7338 82.6915 59.5429L81.2773 60.9571C82.9406 62.6204 85.2293 63.3906 88 63.3906V61.3906ZM82.694 59.5455C81.499 58.3417 80.8438 56.6221 80.8438 54.25H78.8438C78.8438 57.0029 79.6156 59.2833 81.2747 60.9545L82.694 59.5455ZM80.8438 54.25C80.8438 51.7975 81.5487 49.9682 82.8657 48.6422L81.4468 47.2328C79.6805 49.011 78.8438 51.39 78.8438 54.25H80.8438ZM82.8657 48.6422C84.2138 47.2851 85.8516 46.6094 87.8438 46.6094V44.6094C85.3359 44.6094 83.1821 45.4857 81.4468 47.2328L82.8657 48.6422ZM87.8438 46.6094C89.9694 46.6094 91.4757 47.2325 92.5131 48.3635L93.9869 47.0115C92.4827 45.3716 90.3847 44.6094 87.8438 44.6094V46.6094ZM92.5158 48.3665C93.5851 49.5227 94.1719 51.1371 94.1719 53.3281H96.1719C96.1719 50.7692 95.4774 48.6231 93.9842 47.0085L92.5158 48.3665ZM94.1719 53.3281V55.4062H96.1719V53.3281H94.1719ZM91.5938 52.375C91.5938 51.1203 91.3442 49.9939 90.6758 49.1679C89.9747 48.3013 88.9564 47.9375 87.8125 47.9375V49.9375C88.5228 49.9375 88.8951 50.1466 89.121 50.4259C89.3798 50.7457 89.5938 51.338 89.5938 52.375H91.5938ZM87.8125 47.9375C86.7021 47.9375 85.7526 48.4138 85.0026 49.2575L86.4974 50.5862C86.9141 50.1175 87.3395 49.9375 87.8125 49.9375V47.9375ZM84.9967 49.2642C84.2765 50.0892 83.8578 51.0995 83.7112 52.2484L85.6951 52.5016C85.7984 51.6922 86.0777 51.067 86.5033 50.5795L84.9967 49.2642ZM84.7031 53.375H90.5938V51.375H84.7031V53.375ZM110.734 61.4219L111.236 62.2871L111.734 61.9982V61.4219H110.734ZM100.094 47.9688L100.787 48.6896L100.787 48.6895L100.094 47.9688ZM110.734 46.3594H111.734V45.7896L111.244 45.4991L110.734 46.3594ZM110.734 50.5469L110.136 51.3478L111.734 52.5428V50.5469H110.734ZM103.859 57.4062L103.143 58.1041L103.148 58.1087L103.859 57.4062ZM110.734 57.4531H111.734V55.6029L110.187 56.6165L110.734 57.4531ZM110.233 60.5566C109.339 61.0749 107.934 61.3906 105.906 61.3906V63.3906C108.087 63.3906 109.901 63.0605 111.236 62.2871L110.233 60.5566ZM105.906 61.3906C103.666 61.3906 101.942 60.7199 100.637 59.4418L99.2378 60.8707C100.975 62.5718 103.23 63.3906 105.906 63.3906V61.3906ZM100.637 59.4418C99.3297 58.1612 98.6562 56.5073 98.6562 54.3906H96.6562C96.6562 56.9823 97.5036 59.1721 99.2378 60.8707L100.637 59.4418ZM98.6562 54.3906C98.6562 51.8836 99.3975 50.0255 100.787 48.6896L99.4006 47.2479C97.54 49.037 96.6562 51.4601 96.6562 54.3906H98.6562ZM100.787 48.6895C102.199 47.331 104.114 46.6094 106.641 46.6094V44.6094C103.709 44.6094 101.259 45.4607 99.4005 47.248L100.787 48.6895ZM106.641 46.6094C108.485 46.6094 109.621 46.8623 110.225 47.2197L111.244 45.4991C110.16 44.8565 108.568 44.6094 106.641 44.6094V46.6094ZM109.734 46.3594V50.5469H111.734V46.3594H109.734ZM111.333 49.7459C110.131 48.8477 108.771 48.3906 107.281 48.3906V50.3906C108.333 50.3906 109.275 50.7044 110.136 51.3478L111.333 49.7459ZM107.281 48.3906C105.657 48.3906 104.257 48.8757 103.199 49.9335L104.613 51.3477C105.222 50.7389 106.072 50.3906 107.281 50.3906V48.3906ZM103.199 49.9335C102.144 50.9887 101.672 52.4098 101.672 54.0625H103.672C103.672 52.7985 104.023 51.9383 104.613 51.3477L103.199 49.9335ZM101.672 54.0625C101.672 55.6716 102.127 57.0611 103.143 58.1041L104.576 56.7084C104.009 56.1264 103.672 55.2867 103.672 54.0625H101.672ZM103.148 58.1087C104.169 59.1431 105.537 59.6094 107.125 59.6094V57.6094C105.942 57.6094 105.133 57.2736 104.571 56.7038L103.148 58.1087ZM107.125 59.6094C108.576 59.6094 109.967 59.1513 111.282 58.2897L110.187 56.6165C109.148 57.2966 108.132 57.6094 107.125 57.6094V59.6094ZM109.734 57.4531V61.4219H111.734V57.4531H109.734ZM124.156 61.8125L124.624 62.6966L125.156 62.415V61.8125H124.156ZM115.641 49.6406H116.641V48.6406H115.641V49.6406ZM113.047 49.6406H112.047V50.6406H113.047V49.6406ZM113.047 46V45H112.047V46H113.047ZM115.641 46V47H116.641V46H115.641ZM115.641 42.5469L115.366 41.5854L114.641 41.7926V42.5469H115.641ZM120.562 41.1406H121.562V39.8149L120.288 40.1791L120.562 41.1406ZM120.562 46H119.562V47H120.562V46ZM124.156 46H125.156V45H124.156V46ZM124.156 49.6406V50.6406H125.156V49.6406H124.156ZM120.562 49.6406V48.6406H119.562V49.6406H120.562ZM124.156 58.1562H125.156V56.4692L123.676 57.279L124.156 58.1562ZM123.689 60.9284C123.176 61.1994 122.274 61.3906 120.859 61.3906V63.3906C122.382 63.3906 123.678 63.1965 124.624 62.6966L123.689 60.9284ZM120.859 61.3906C119.284 61.3906 118.284 60.9835 117.666 60.3417C117.041 59.6928 116.641 58.6312 116.641 56.9688H114.641C114.641 58.9208 115.11 60.5702 116.225 61.7286C117.347 62.8942 118.956 63.3906 120.859 63.3906V61.3906ZM116.641 56.9688V49.6406H114.641V56.9688H116.641ZM115.641 48.6406H113.047V50.6406H115.641V48.6406ZM114.047 49.6406V46H112.047V49.6406H114.047ZM113.047 47H115.641V45H113.047V47ZM116.641 46V42.5469H114.641V46H116.641ZM115.915 43.5084L120.837 42.1021L120.288 40.1791L115.366 41.5854L115.915 43.5084ZM119.562 41.1406V46H121.562V41.1406H119.562ZM120.562 47H124.156V45H120.562V47ZM123.156 46V49.6406H125.156V46H123.156ZM124.156 48.6406H120.562V50.6406H124.156V48.6406ZM119.562 49.6406V56.1094H121.562V49.6406H119.562ZM119.562 56.1094C119.562 57.0482 119.744 57.9371 120.275 58.6061C120.841 59.3191 121.662 59.6094 122.547 59.6094V57.6094C122.109 57.6094 121.937 57.4829 121.842 57.3627C121.711 57.1983 121.562 56.8372 121.562 56.1094H119.562ZM122.547 59.6094C123.267 59.6094 123.967 59.3994 124.636 59.0335L123.676 57.279C123.241 57.5172 122.868 57.6094 122.547 57.6094V59.6094ZM123.156 58.1562V61.8125H125.156V58.1562H123.156ZM127.906 42.7344L127.221 43.4626L127.229 43.4697L127.906 42.7344ZM132 39.0938L131.331 39.8371L131.338 39.8436L132 39.0938ZM132 42.75L131.33 42.0074L131.323 42.0141L132 42.75ZM132.391 62V63H133.391V62H132.391ZM127.453 62H126.453V63H127.453V62ZM127.453 46V45H126.453V46H127.453ZM132.391 46H133.391V45H132.391V46ZM129.953 42.4688C129.33 42.4688 128.902 42.2924 128.584 41.999L127.229 43.4697C127.973 44.1555 128.91 44.4688 129.953 44.4688V42.4688ZM128.592 42.0062C128.258 41.6919 128.109 41.3446 128.109 40.9062H126.109C126.109 41.9054 126.492 42.7768 127.221 43.4626L128.592 42.0062ZM128.109 40.9062C128.109 40.4393 128.262 40.1132 128.568 39.8436L127.245 38.3439C126.488 39.0118 126.109 39.8941 126.109 40.9062H128.109ZM128.568 39.8436C128.885 39.5637 129.318 39.3906 129.953 39.3906V37.3906C128.922 37.3906 127.99 37.6863 127.245 38.3439L128.568 39.8436ZM129.953 39.3906C130.603 39.3906 131.03 39.5659 131.331 39.837L132.669 38.3505C131.929 37.6841 130.991 37.3906 129.953 37.3906V39.3906ZM131.338 39.8436C131.644 40.1132 131.797 40.4393 131.797 40.9062H133.797C133.797 39.8941 133.419 39.0118 132.662 38.3439L131.338 39.8436ZM131.797 40.9062C131.797 41.3886 131.64 41.728 131.33 42.0074L132.67 43.4926C133.422 42.8137 133.797 41.9239 133.797 40.9062H131.797ZM131.323 42.0141C131.021 42.2918 130.597 42.4688 129.953 42.4688V44.4688C130.997 44.4688 131.937 44.1666 132.677 43.4859L131.323 42.0141ZM132.391 61H127.453V63H132.391V61ZM128.453 62V46H126.453V62H128.453ZM127.453 47H132.391V45H127.453V47ZM131.391 46V62H133.391V46H131.391ZM138.375 60.1562L137.673 60.8682L137.678 60.873L138.375 60.1562ZM138.469 47.8594L139.154 48.5877L139.156 48.5853L138.469 47.8594ZM151.141 47.8594L150.436 48.5689L150.438 48.5714L151.141 47.8594ZM151.062 60.0781L150.36 59.3663L150.358 59.3686L151.062 60.0781ZM144.672 61.3906C142.198 61.3906 140.373 60.705 139.072 59.4395L137.678 60.873C139.439 62.5867 141.813 63.3906 144.672 63.3906V61.3906ZM139.077 59.4443C137.784 58.1689 137.094 56.4147 137.094 54.0625H135.094C135.094 56.8353 135.924 59.1436 137.673 60.8682L139.077 59.4443ZM137.094 54.0625C137.094 51.628 137.814 49.8483 139.154 48.5877L137.784 47.131C135.957 48.8496 135.094 51.2053 135.094 54.0625H137.094ZM139.156 48.5853C140.512 47.3007 142.385 46.6094 144.891 46.6094V44.6094C142.001 44.6094 139.592 45.418 137.781 47.1334L139.156 48.5853ZM144.891 46.6094C147.352 46.6094 149.157 47.2986 150.436 48.5689L151.845 47.1498C150.104 45.4202 147.742 44.6094 144.891 44.6094V46.6094ZM150.438 48.5714C151.728 49.843 152.406 51.5444 152.406 53.7812H154.406C154.406 51.1014 153.574 48.8549 151.843 47.1474L150.438 48.5714ZM152.406 53.7812C152.406 56.2301 151.693 58.0509 150.36 59.3663L151.765 60.79C153.557 59.022 154.406 56.6449 154.406 53.7812H152.406ZM150.358 59.3686C149.035 60.6821 147.183 61.3906 144.672 61.3906V63.3906C147.578 63.3906 149.985 62.5575 151.767 60.7876L150.358 59.3686ZM144.797 48.3906C143.373 48.3906 142.162 48.8955 141.299 49.9666L142.857 51.2209C143.286 50.6878 143.887 50.3906 144.797 50.3906V48.3906ZM141.299 49.9666C140.46 51.0085 140.109 52.3982 140.109 54H142.109C142.109 52.6643 142.404 51.7832 142.857 51.2209L141.299 49.9666ZM140.109 54C140.109 55.6448 140.437 57.0637 141.261 58.0849C142.118 59.1472 143.371 59.6094 144.828 59.6094V57.6094C143.806 57.6094 143.2 57.3033 142.817 56.8291C142.402 56.3139 142.109 55.4281 142.109 54H140.109ZM144.828 59.6094C146.255 59.6094 147.47 59.118 148.289 58.0254C149.067 56.987 149.375 55.5491 149.375 53.875H147.375C147.375 55.3571 147.092 56.2865 146.688 56.8262C146.324 57.3116 145.766 57.6094 144.828 57.6094V59.6094ZM149.375 53.875C149.375 52.2738 149.06 50.888 148.262 49.888C147.43 48.845 146.211 48.3906 144.797 48.3906V50.3906C145.768 50.3906 146.338 50.6837 146.699 51.1354C147.094 51.6303 147.375 52.4866 147.375 53.875H149.375ZM172.562 62V63H173.562V62H172.562ZM167.641 62H166.641V63H167.641V62ZM162.875 50.375L162.11 49.7312L162.875 50.375ZM162.047 62V63H163.047V62H162.047ZM157.109 62H156.109V63H157.109V62ZM157.109 46V45H156.109V46H157.109ZM162.047 46H163.047V45H162.047V46ZM162.047 48.5312H161.047V49.5312H162.047V48.5312ZM162.109 48.5312V49.5312H162.673L162.965 49.0484L162.109 48.5312ZM172.562 61H167.641V63H172.562V61ZM168.641 62V53.1094H166.641V62H168.641ZM168.641 53.1094C168.641 51.7809 168.409 50.605 167.79 49.7391C167.127 48.8111 166.133 48.3906 164.984 48.3906V50.3906C165.607 50.3906 165.94 50.5899 166.163 50.9016C166.43 51.2752 166.641 51.9586 166.641 53.1094H168.641ZM164.984 48.3906C163.834 48.3906 162.851 48.8502 162.11 49.7312L163.64 51.0188C164.003 50.5873 164.427 50.3906 164.984 50.3906V48.3906ZM162.11 49.7312C161.38 50.5988 161.047 51.6731 161.047 52.875H163.047C163.047 52.0561 163.266 51.4637 163.64 51.0188L162.11 49.7312ZM161.047 52.875V62H163.047V52.875H161.047ZM162.047 61H157.109V63H162.047V61ZM158.109 62V46H156.109V62H158.109ZM157.109 47H162.047V45H157.109V47ZM161.047 46V48.5312H163.047V46H161.047ZM162.047 49.5312H162.109V47.5312H162.047V49.5312ZM162.965 49.0484C163.964 47.3959 165.355 46.6094 167.25 46.6094V44.6094C164.645 44.6094 162.609 45.7707 161.254 48.0141L162.965 49.0484ZM167.25 46.6094C168.803 46.6094 169.807 47.0805 170.456 47.8852C171.137 48.7312 171.562 50.1133 171.562 52.2031H173.562C173.562 49.8971 173.102 47.9823 172.013 46.6304C170.891 45.2372 169.239 44.6094 167.25 44.6094V46.6094ZM171.562 52.2031V62H173.562V52.2031H171.562ZM188.438 59.2656L187.718 59.9601L187.72 59.9619L188.438 59.2656ZM204.391 42.3594L203.662 43.0444L203.664 43.0463L204.391 42.3594ZM204.281 59.1562L203.557 58.4669L203.555 58.4687L204.281 59.1562ZM192.281 45.5625L193.067 46.1811L193.069 46.1781L192.281 45.5625ZM200.516 56.1562L201.29 56.7888L201.293 56.7856L200.516 56.1562ZM196.281 61.3906C193.312 61.3906 190.967 60.4371 189.155 58.5694L187.72 59.9619C189.95 62.2608 192.834 63.3906 196.281 63.3906V61.3906ZM189.157 58.5712C187.344 56.6924 186.406 54.2315 186.406 51.0938H184.406C184.406 54.6644 185.49 57.6514 187.718 59.9601L189.157 58.5712ZM186.406 51.0938C186.406 47.7573 187.366 45.1534 189.214 43.1842L187.755 41.8158C185.498 44.2216 184.406 47.3469 184.406 51.0938H186.406ZM189.214 43.1842C191.052 41.2251 193.492 40.2188 196.641 40.2188V38.2188C193.018 38.2188 190.021 39.3999 187.755 41.8158L189.214 43.1842ZM196.641 40.2188C199.597 40.2188 201.905 41.1754 203.662 43.0444L205.119 41.6743C202.939 39.3559 200.08 38.2188 196.641 38.2188V40.2188ZM203.664 43.0463C205.435 44.9201 206.359 47.4175 206.359 50.6406H208.359C208.359 47.0096 207.304 43.9862 205.117 41.6724L203.664 43.0463ZM206.359 50.6406C206.359 53.9549 205.4 56.5299 203.557 58.4669L205.006 59.8456C207.266 57.4701 208.359 54.368 208.359 50.6406H206.359ZM203.555 58.4687C201.724 60.4028 199.331 61.3906 196.281 61.3906V63.3906C199.815 63.3906 202.755 62.2222 205.007 59.8438L203.555 58.4687ZM196.5 42.5625C194.438 42.5625 192.734 43.3581 191.493 44.9469L193.069 46.1781C193.911 45.1002 195.02 44.5625 196.5 44.5625V42.5625ZM191.496 44.9439C190.278 46.4898 189.719 48.4839 189.719 50.8281H191.719C191.719 48.7974 192.201 47.2811 193.067 46.1811L191.496 44.9439ZM189.719 50.8281C189.719 53.1982 190.276 55.2001 191.503 56.7215L193.06 55.466C192.203 54.4041 191.719 52.8955 191.719 50.8281H189.719ZM191.503 56.7215C192.738 58.2532 194.391 59.0312 196.375 59.0312V57.0312C194.984 57.0312 193.908 56.5177 193.06 55.466L191.503 56.7215ZM196.375 59.0312C198.388 59.0312 200.063 58.2913 201.29 56.7888L199.741 55.5237C198.926 56.5212 197.841 57.0312 196.375 57.0312V59.0312ZM201.293 56.7856C202.503 55.2907 203.047 53.2951 203.047 50.9219H201.047C201.047 53.007 200.569 54.501 199.739 55.5269L201.293 56.7856ZM203.047 50.9219C203.047 48.4704 202.526 46.4188 201.356 44.8918L199.769 46.1082C200.578 47.1645 201.047 48.7275 201.047 50.9219H203.047ZM201.356 44.8918C200.165 43.3374 198.51 42.5625 196.5 42.5625V44.5625C197.928 44.5625 198.98 45.0792 199.769 46.1082L201.356 44.8918ZM221.547 42.0938L221.181 43.0243L222.547 43.5618V42.0938H221.547ZM217.344 46H216.344V47H217.344V46ZM221 46H222V45H221V46ZM221 49.6406V50.6406H222V49.6406H221ZM217.344 49.6406V48.6406H216.344V49.6406H217.344ZM217.344 62V63H218.344V62H217.344ZM212.422 62H211.422V63H212.422V62ZM212.422 49.6406H213.422V48.6406H212.422V49.6406ZM209.734 49.6406H208.734V50.6406H209.734V49.6406ZM209.734 46V45H208.734V46H209.734ZM212.422 46V47H213.422V46H212.422ZM221.547 38.25H222.547V37.5148L221.845 37.2955L221.547 38.25ZM221.913 41.1632C221.181 40.875 220.447 40.7188 219.719 40.7188V42.7188C220.157 42.7188 220.642 42.8125 221.181 43.0243L221.913 41.1632ZM219.719 40.7188C218.751 40.7188 217.847 40.9852 217.202 41.6857C216.571 42.3708 216.344 43.3028 216.344 44.2969H218.344C218.344 43.5722 218.512 43.2152 218.673 43.0408C218.819 42.882 219.103 42.7188 219.719 42.7188V40.7188ZM216.344 44.2969V46H218.344V44.2969H216.344ZM217.344 47H221V45H217.344V47ZM220 46V49.6406H222V46H220ZM221 48.6406H217.344V50.6406H221V48.6406ZM216.344 49.6406V62H218.344V49.6406H216.344ZM217.344 61H212.422V63H217.344V61ZM213.422 62V49.6406H211.422V62H213.422ZM212.422 48.6406H209.734V50.6406H212.422V48.6406ZM210.734 49.6406V46H208.734V49.6406H210.734ZM209.734 47H212.422V45H209.734V47ZM213.422 46V44.0156H211.422V46H213.422ZM213.422 44.0156C213.422 42.4325 213.926 41.2405 214.887 40.3385L213.519 38.8802C212.105 40.2074 211.422 41.9529 211.422 44.0156H213.422ZM214.887 40.3385C215.846 39.4391 217.192 38.9375 219.047 38.9375V36.9375C216.818 36.9375 214.936 37.5504 213.519 38.8802L214.887 40.3385ZM219.047 38.9375C219.985 38.9375 220.71 39.0362 221.249 39.2045L221.845 37.2955C221.05 37.0471 220.108 36.9375 219.047 36.9375V38.9375ZM220.547 38.25V42.0938H222.547V38.25H220.547ZM253.422 62V63H254.839L254.364 61.6649L253.422 62ZM247.922 62L246.969 62.3046L247.192 63H247.922V62ZM246.328 57.0156L247.281 56.7111L247.058 56.0156H246.328V57.0156ZM238.359 57.0156V56.0156H237.627L237.406 56.7138L238.359 57.0156ZM236.781 62V63H237.514L237.735 62.3018L236.781 62ZM231.312 62L230.373 61.6579L229.884 63H231.312V62ZM239.469 39.5938V38.5938H238.769L238.529 39.2517L239.469 39.5938ZM245.453 39.5938L246.395 39.2587L246.159 38.5938H245.453V39.5938ZM245.172 53.1406V54.1406H246.541L246.124 52.8363L245.172 53.1406ZM242.766 45.6094L241.812 45.9097L241.813 45.9137L242.766 45.6094ZM242.391 43.5938L243.386 43.5008L243.302 42.5938H242.391V43.5938ZM242.266 43.5938V42.5938H241.342L241.269 43.5146L242.266 43.5938ZM241.875 45.5469L240.923 45.2399L240.923 45.2412L241.875 45.5469ZM239.438 53.1406L238.485 52.835L238.066 54.1406H239.438V53.1406ZM253.422 61H247.922V63H253.422V61ZM248.874 61.6954L247.281 56.7111L245.376 57.3202L246.969 62.3046L248.874 61.6954ZM246.328 56.0156H238.359V58.0156H246.328V56.0156ZM237.406 56.7138L235.828 61.6982L237.735 62.3018L239.313 57.3175L237.406 56.7138ZM236.781 61H231.312V63H236.781V61ZM232.252 62.3421L240.408 39.9358L238.529 39.2517L230.373 61.6579L232.252 62.3421ZM239.469 40.5938H245.453V38.5938H239.469V40.5938ZM244.511 39.9288L252.48 62.3351L254.364 61.6649L246.395 39.2587L244.511 39.9288ZM246.124 52.8363L243.718 45.305L241.813 45.9137L244.219 53.445L246.124 52.8363ZM243.719 45.3091C243.569 44.832 243.455 44.2332 243.386 43.5008L241.395 43.6867C241.472 44.5168 241.608 45.2618 241.812 45.9097L243.719 45.3091ZM242.391 42.5938H242.266V44.5938H242.391V42.5938ZM241.269 43.5146C241.223 44.0911 241.109 44.6657 240.923 45.2399L242.827 45.8539C243.058 45.1364 243.204 44.4089 243.262 43.6729L241.269 43.5146ZM240.923 45.2412L238.485 52.835L240.39 53.4463L242.827 45.8525L240.923 45.2412ZM239.438 54.1406H245.172V52.1406H239.438V54.1406ZM261.172 62V63H262.172V62H261.172ZM256.234 62H255.234V63H256.234V62ZM256.234 38.3125V37.3125H255.234V38.3125H256.234ZM261.172 38.3125H262.172V37.3125H261.172V38.3125ZM261.172 61H256.234V63H261.172V61ZM257.234 62V38.3125H255.234V62H257.234ZM256.234 39.3125H261.172V37.3125H256.234V39.3125ZM260.172 38.3125V62H262.172V38.3125H260.172ZM270.766 62V63H271.766V62H270.766ZM265.828 62H264.828V63H265.828V62ZM265.828 38.3125V37.3125H264.828V38.3125H265.828ZM270.766 38.3125H271.766V37.3125H270.766V38.3125ZM270.766 61H265.828V63H270.766V61ZM266.828 62V38.3125H264.828V62H266.828ZM265.828 39.3125H270.766V37.3125H265.828V39.3125ZM269.766 38.3125V62H271.766V38.3125H269.766ZM310.781 62V63H311.781V62H310.781ZM305.797 62H304.797V63H305.797V62ZM305.984 43.7969L306.982 43.8681L307.058 42.7969H305.984V43.7969ZM305.859 43.7969V42.7969H305.031L304.877 43.6108L305.859 43.7969ZM305.156 46.7656L304.211 46.4396L304.211 46.4398L305.156 46.7656ZM299.906 62V63H300.619L300.852 62.3258L299.906 62ZM295.781 62L294.839 62.334L295.075 63H295.781V62ZM290.438 46.9219L291.38 46.5878L291.379 46.584L290.438 46.9219ZM289.734 43.7969L290.716 43.6078L290.56 42.7969H289.734V43.7969ZM289.594 43.7969V42.7969H288.531L288.596 43.8581L289.594 43.7969ZM289.797 62V63H290.797V62H289.797ZM285.25 62H284.25V63H285.25V62ZM285.25 39.5938V38.5938H284.25V39.5938H285.25ZM292.641 39.5938L293.586 39.2679L293.354 38.5938H292.641V39.5938ZM297.219 52.875L298.165 52.5504L298.164 52.5491L297.219 52.875ZM298.016 56.0781L297.027 56.2316L297.159 57.0781H298.016V56.0781ZM298.109 56.0781V57.0781H298.908L299.085 56.2994L298.109 56.0781ZM299 52.8438L298.055 52.5172L298.053 52.5211L299 52.8438ZM303.578 39.5938V38.5938H302.866L302.633 39.2672L303.578 39.5938ZM310.781 39.5938H311.781V38.5938H310.781V39.5938ZM310.781 61H305.797V63H310.781V61ZM306.797 62V48.5938H304.797V62H306.797ZM306.797 48.5938C306.797 47.1739 306.858 45.5992 306.982 43.8681L304.987 43.7256C304.861 45.4946 304.797 47.1177 304.797 48.5938H306.797ZM305.984 42.7969H305.859V44.7969H305.984V42.7969ZM304.877 43.6108C304.617 44.9805 304.394 45.909 304.211 46.4396L306.102 47.0916C306.335 46.414 306.58 45.3633 306.842 43.983L304.877 43.6108ZM304.211 46.4398L298.961 61.6742L300.852 62.3258L306.102 47.0914L304.211 46.4398ZM299.906 61H295.781V63H299.906V61ZM296.724 61.666L291.38 46.5878L289.495 47.2559L294.839 62.334L296.724 61.666ZM291.379 46.584C291.265 46.267 291.045 45.3129 290.716 43.6078L288.752 43.9859C289.07 45.635 289.318 46.7643 289.496 47.2597L291.379 46.584ZM289.734 42.7969H289.594V44.7969H289.734V42.7969ZM288.596 43.8581C288.73 46.0522 288.797 47.9685 288.797 49.6094H290.797C290.797 47.9169 290.728 45.9582 290.592 43.7357L288.596 43.8581ZM288.797 49.6094V62H290.797V49.6094H288.797ZM289.797 61H285.25V63H289.797V61ZM286.25 62V39.5938H284.25V62H286.25ZM285.25 40.5938H292.641V38.5938H285.25V40.5938ZM291.695 39.9196L296.273 53.2009L298.164 52.5491L293.586 39.2679L291.695 39.9196ZM296.273 53.1996C296.619 54.2083 296.87 55.2188 297.027 56.2316L299.004 55.9246C298.828 54.7916 298.548 53.6667 298.165 52.5504L296.273 53.1996ZM298.016 57.0781H298.109V55.0781H298.016V57.0781ZM299.085 56.2994C299.36 55.0842 299.648 54.0414 299.947 53.1664L298.053 52.5211C297.727 53.4794 297.421 54.5929 297.134 55.8569L299.085 56.2994ZM299.945 53.1703L304.523 39.9203L302.633 39.2672L298.055 52.5172L299.945 53.1703ZM303.578 40.5938H310.781V38.5938H303.578V40.5938ZM309.781 39.5938V62H311.781V39.5938H309.781ZM331.125 46L332.061 46.3521L332.57 45H331.125V46ZM324.625 63.2812L323.689 62.9292L323.689 62.9294L324.625 63.2812ZM314.609 69.1094H313.609V69.818L314.278 70.0528L314.609 69.1094ZM314.609 65.1719L315.116 64.3096L313.609 63.4249V65.1719H314.609ZM319.406 63.9531L318.486 63.5618L318.483 63.5679L319.406 63.9531ZM320.25 61.9688L321.17 62.36L321.333 61.9771L321.176 61.5917L320.25 61.9688ZM313.75 46V45H312.263L312.824 46.377L313.75 46ZM319.219 46L320.175 45.7069L319.958 45H319.219V46ZM322.203 55.7344L321.247 56.0275L321.248 56.0308L322.203 55.7344ZM322.641 57.875L321.649 58.0006L321.759 58.875H322.641V57.875ZM322.703 57.875V58.875H323.56L323.691 58.0283L322.703 57.875ZM323.219 55.7656L324.173 56.0632L324.174 56.0607L323.219 55.7656ZM326.234 46V45H325.497L325.279 45.7049L326.234 46ZM330.189 45.6479L323.689 62.9292L325.561 63.6333L332.061 46.3521L330.189 45.6479ZM323.689 62.9294C322.943 64.914 322.04 66.3119 321.026 67.2073C320.032 68.0848 318.892 68.5156 317.562 68.5156V70.5156C319.379 70.5156 320.989 69.9074 322.349 68.7067C323.689 67.524 324.745 65.8047 325.561 63.6331L323.689 62.9294ZM317.562 68.5156C316.43 68.5156 315.568 68.3862 314.941 68.1659L314.278 70.0528C315.192 70.3742 316.299 70.5156 317.562 70.5156V68.5156ZM315.609 69.1094V65.1719H313.609V69.1094H315.609ZM314.103 66.0342C314.915 66.511 315.804 66.75 316.75 66.75V64.75C316.155 64.75 315.616 64.6036 315.116 64.3096L314.103 66.0342ZM316.75 66.75C317.547 66.75 318.29 66.5602 318.927 66.1291C319.563 65.6989 320.02 65.0782 320.329 64.3383L318.483 63.5679C318.292 64.0259 318.056 64.3037 317.807 64.4725C317.559 64.6403 317.224 64.75 316.75 64.75V66.75ZM320.327 64.3444L321.17 62.36L319.33 61.5775L318.486 63.5618L320.327 64.3444ZM321.176 61.5917L314.676 45.623L312.824 46.377L319.324 62.3458L321.176 61.5917ZM313.75 47H319.219V45H313.75V47ZM318.263 46.2931L321.247 56.0275L323.159 55.4413L320.175 45.7069L318.263 46.2931ZM321.248 56.0308C321.414 56.5651 321.55 57.2188 321.649 58.0006L323.633 57.7494C323.523 56.8853 323.367 56.112 323.158 55.438L321.248 56.0308ZM322.641 58.875H322.703V56.875H322.641V58.875ZM323.691 58.0283C323.775 57.4872 323.933 56.8342 324.173 56.0632L322.264 55.4681C322.004 56.3012 321.818 57.0544 321.715 57.7217L323.691 58.0283ZM324.174 56.0607L327.19 46.2951L325.279 45.7049L322.263 55.4706L324.174 56.0607ZM326.234 47H331.125V45H326.234V47Z" fill="white"/>
</svg>
