<svg width="23" height="21" viewBox="0 0 23 21" fill="none" xmlns="http://www.w3.org/2000/svg">
<path d="M11.1107 0C4.97204 0 0 4.79205 0 10.7025C0 15.4321 3.18322 19.4429 7.59695 20.8565C8.15248 20.9573 8.35618 20.6264 8.35618 20.3419C8.35618 20.0877 8.34692 19.4143 8.34229 18.5225C5.25166 19.1682 4.59983 17.0865 4.59983 17.0865C4.0943 15.8513 3.36377 15.5213 3.36377 15.5213C2.35732 14.8578 3.44154 14.8711 3.44154 14.8711C4.55724 14.946 5.14333 15.9735 5.14333 15.9735C6.13404 17.6101 7.74417 17.1374 8.37933 16.8636C8.47933 16.1715 8.76543 15.6997 9.08301 15.4321C6.6155 15.1646 4.02208 14.2441 4.02208 10.1433C4.02208 8.97494 4.45262 8.02064 5.16556 7.27146C5.04056 7.00122 4.66557 5.91314 5.26277 4.43886C5.26277 4.43886 6.1933 4.15168 8.31822 5.53587C9.20708 5.29774 10.1515 5.18001 11.0959 5.17466C12.0403 5.18001 12.9847 5.29774 13.8736 5.53587C15.9846 4.15168 16.9151 4.43886 16.9151 4.43886C17.5123 5.91314 17.1373 7.00122 17.0262 7.27146C17.7345 8.02064 18.1651 8.97494 18.1651 10.1433C18.1651 14.2548 15.568 15.1601 13.0958 15.4232C13.4847 15.7443 13.8458 16.4007 13.8458 17.4032C13.8458 18.8355 13.8319 19.986 13.8319 20.3339C13.8319 20.6148 14.0263 20.9493 14.5958 20.8422C19.041 19.4384 22.2214 15.425 22.2214 10.7025C22.2214 4.79205 17.2466 0 11.1107 0Z" fill="#F5F5F5"/>
</svg>
